<svg width="709" height="608" viewBox="0 0 709 608" fill="none" xmlns="http://www.w3.org/2000/svg">
<path fill-rule="evenodd" clip-rule="evenodd" d="M57 1.058C55.075 1.527 52.6 1.65 51.5 1.331C50.4 1.012 49.828 1.098 50.229 1.521C50.63 1.945 47.468 3.698 43.203 5.418C35.123 8.676 31.614 10.809 23.891 17.16C21.357 19.244 18.994 20.736 18.641 20.475C18.289 20.214 18.2 20.275 18.443 20.61C18.687 20.946 16.589 24.208 13.78 27.86C7.67 35.806 3.327 44.97 1.429 53.923C0.265002 59.411 0.032 91.416 0.017 247.292C-0.00200001 450.646 -0.253998 441.032 5.472 455.123C8.128 461.661 14.442 471.225 18.859 475.403C20.548 477 21.648 478.8 21.304 479.403C20.96 480.006 21.028 480.186 21.453 479.803C21.879 479.42 24.538 480.823 27.363 482.92C34.324 488.088 40.508 491.552 47.58 494.245L53.5 496.5L207.936 496.769C361.61 497.036 362.412 497.027 370.407 494.955C383.831 491.475 393.101 485.986 404.036 475.043C411.869 467.205 414.316 463.982 417.734 457C425.181 441.793 425.119 441.67 409.806 441.261C394.102 440.843 389.956 441.972 385.243 447.953C380.468 454.012 374.522 458.571 367.803 461.326L362.5 463.5H212.5C67.009 463.5 62.323 463.442 56.612 461.57C48.986 459.07 40.223 451.161 36.878 443.76L34.5 438.5V248.5V58.5L36.661 53.824C39.282 48.153 46.828 39.72 48.655 40.421C49.382 40.7 49.869 40.417 49.738 39.793C49.607 39.169 51.75 37.733 54.5 36.602C59.479 34.555 60.144 34.547 211 34.78C294.325 34.909 363.741 35.273 365.259 35.589C366.877 35.925 367.743 36.606 367.354 37.236C366.968 37.86 367.16 38.019 367.811 37.617C369.19 36.765 375.578 39.938 379.132 43.24C383.432 47.236 386.813 53.117 388.456 59.46C389.77 64.533 390 74.985 390 129.651C390 174.356 390.327 194.084 391.074 194.546C391.665 194.911 398.69 195.222 406.684 195.236C417.981 195.256 421.415 194.954 422.095 193.881C423.395 191.829 423.232 67.819 421.917 58.322C418.885 36.431 405.049 17.612 384.604 7.57401C368.222 -0.46999 378.878 -0.01299 210.292 0.10201C127.906 0.15901 58.925 0.589004 57 1.058ZM634 23.29C632.598 23.998 627.102 31.129 621.486 39.526C592.518 82.844 572.629 113.6 571.765 116.413C571.042 118.769 571.182 120.5 572.314 123.209C575.081 129.832 576.347 130.156 600.195 130.338C620.05 130.489 621.497 130.624 621.83 132.354C622.617 136.444 619.707 154.99 617.063 162.729C615.517 167.255 612.422 174.04 610.184 177.807C605.319 185.996 597.233 195.262 595.752 194.347C595.168 193.986 594.97 194.142 595.31 194.692C596.563 196.72 585.393 205.049 574.73 210.039C571.303 211.642 564.9 213.933 560.5 215.13C553.07 217.151 549.721 217.335 513.5 217.704C472.027 218.127 463.904 218.917 449.633 223.917C446.406 225.048 443.256 225.682 442.633 225.326C442.01 224.97 441.829 225.043 442.23 225.486C442.632 225.93 440.752 227.316 438.053 228.567C423.058 235.514 406.562 250.211 396.335 265.735C393 270.797 389.914 274.615 389.476 274.219C389.038 273.824 388.982 274.029 389.352 274.675C390.262 276.264 387.97 281.099 386.684 280.305C386.079 279.931 385.902 280.303 386.251 281.212C386.576 282.059 385.728 285.822 384.365 289.574C376.125 312.278 376.713 341.465 385.872 364.339C389.386 373.114 389.455 373.4 387.845 372.405C387.108 371.949 386.963 372.132 387.446 372.912C387.861 373.584 388.444 373.89 388.742 373.592C389.039 373.294 391.255 376.25 393.666 380.161C396.078 384.071 399.196 388.672 400.596 390.385C406.944 398.153 419.153 409.586 426 414.175C430.125 416.94 433.806 419.944 434.18 420.851C434.554 421.758 434.891 421.963 434.93 421.307C434.973 420.568 437.953 421.466 442.75 423.663C447.013 425.615 454.775 428.368 460 429.781L469.5 432.351L528.5 432.991L587.5 433.632L595.777 436.368C600.329 437.873 603.793 439.525 603.475 440.041C603.157 440.556 603.483 440.752 604.201 440.477C606.774 439.489 618.273 447.53 626.094 455.786C638.675 469.068 644.802 482.212 647.138 500.93C649.714 521.571 643.043 541.972 629.285 555.528C622.328 562.383 611.12 568.862 605.5 569.278C603.85 569.4 602.179 569.95 601.786 570.5C601.317 571.156 564.302 571.509 494.286 571.527C392.633 571.553 387.332 571.642 384 573.391C379.388 575.811 376.457 579.235 374.409 584.599C371.145 593.145 374.951 602.257 383.384 606.087C387.319 607.874 392.113 607.957 492.619 607.978C580.518 607.996 599.111 607.76 606.119 606.535C625.813 603.094 640.84 595.206 655.11 580.819C673.785 561.991 682.602 541.059 683.677 513C684.321 496.218 682.829 485.276 677.999 471.334C663.555 429.649 623.447 398.514 581.5 396.424C576 396.15 549.9 395.778 523.5 395.597C478.149 395.287 475.062 395.15 467.558 393.126C445.895 387.282 428.677 372.317 420.52 352.241C417.763 345.457 415 331.831 415 325.021C415 298.781 430.067 273.785 453.072 261.86C465.404 255.467 470.1 254.731 501 254.341C556.923 253.635 559.627 253.492 570.277 250.682C601.328 242.487 629.051 220.499 644.264 192C652.421 176.72 656.369 161.868 657.555 142L658.242 130.5H679.048C698.493 130.5 700.039 130.365 702.677 128.435C704.23 127.3 706.302 124.76 707.282 122.792C709.643 118.048 708.49 114.784 699.655 101.191C695.97 95.521 693.26 90.389 693.632 89.786C694.018 89.162 693.851 88.974 693.246 89.348C692.639 89.723 690.352 87.104 687.92 83.253C683.331 75.982 657.422 36.029 653.116 29.584C651.677 27.43 649.15 24.844 647.5 23.838C644.036 21.724 637.621 21.464 634 23.29ZM156.048 90.576C154.149 91.4 148.006 96.782 142.395 102.537C136.785 108.292 131.701 113 131.097 113C130.494 113 130 113.591 130 114.313C130 115.927 124.838 121 123.195 121C122.538 121 122 121.489 122 122.087C122 122.685 119.492 125.662 116.427 128.702L110.854 134.231L101.067 124.615C91.346 115.065 90.268 114.456 84.025 114.99C76.222 115.658 71.341 126.448 75.79 133.194C76.767 134.676 82.636 141.095 88.832 147.46C95.918 154.738 99.835 159.49 99.389 160.266C98.999 160.945 99.026 161.188 99.449 160.807C99.873 160.426 101.851 160.988 103.845 162.057C108.149 164.363 112.098 164.532 115.8 162.566C119.941 160.367 171.763 107.882 172.954 104.681C174.895 99.463 172.044 93.198 166.54 90.586C162.45 88.645 160.502 88.643 156.048 90.576ZM217.458 102.068C217.095 102.656 216.069 102.857 215.179 102.515C214.289 102.174 213.871 102.205 214.251 102.584C214.63 102.964 213.979 104.625 212.804 106.276C208.67 112.081 210.488 120.652 216.719 124.736C219.203 126.364 224.085 126.522 280.166 126.78C347.345 127.089 346.08 127.197 349.974 120.81C352.192 117.172 352.623 111.032 350.887 107.789C350.275 106.646 348.588 104.665 347.137 103.387L344.5 101.063L281.309 101.032C237.539 101.01 217.915 101.328 217.458 102.068ZM388.079 126.583C388.127 127.748 388.364 127.985 388.683 127.188C388.972 126.466 388.936 125.603 388.604 125.271C388.272 124.939 388.036 125.529 388.079 126.583ZM263.813 128.683C264.534 128.972 265.397 128.936 265.729 128.604C266.061 128.272 265.471 128.036 264.417 128.079C263.252 128.127 263.015 128.364 263.813 128.683ZM301.813 128.683C302.534 128.972 303.397 128.936 303.729 128.604C304.061 128.272 303.471 128.036 302.417 128.079C301.252 128.127 301.015 128.364 301.813 128.683ZM313.813 128.683C314.534 128.972 315.397 128.936 315.729 128.604C316.061 128.272 315.471 128.036 314.417 128.079C313.252 128.127 313.015 128.364 313.813 128.683ZM318.269 128.693C319.242 128.947 320.592 128.93 321.269 128.656C321.946 128.382 321.15 128.175 319.5 128.195C317.85 128.215 317.296 128.439 318.269 128.693ZM217.241 151.325C215.999 152.015 214.281 153.582 213.423 154.807C212.565 156.031 211.544 156.836 211.154 156.595C210.763 156.354 210.517 158.565 210.605 161.51C210.717 165.226 211.438 167.807 212.962 169.947C217.48 176.292 214.863 176.072 282.244 175.772C341.703 175.508 343.58 175.441 346.217 173.5C349.716 170.924 352 166.178 352 161.481C352 158.497 351.235 156.999 348.118 153.882L344.235 150L281.868 150.035C233.78 150.063 218.983 150.358 217.241 151.325ZM388.079 158.583C388.127 159.748 388.364 159.985 388.683 159.188C388.972 158.466 388.936 157.603 388.604 157.271C388.272 156.939 388.036 157.529 388.079 158.583ZM156.55 208.053C154.887 208.55 149.196 213.323 143.5 219C137.945 224.536 133.012 228.714 132.539 228.283C132.066 227.852 131.953 227.981 132.287 228.569C132.621 229.158 127.969 234.549 121.949 240.551L111.004 251.462L102.252 242.783C92.974 233.582 89.411 231.513 84.446 232.444C80.592 233.167 75.416 238.501 74.547 242.646C73.407 248.077 76.244 252.341 90.699 266.928C111.9 288.32 109.078 288.996 143.965 254.163C158.676 239.476 171.495 225.943 172.453 224.091C175.398 218.396 172.494 210.94 166.328 208.364C162.667 206.834 160.827 206.775 156.55 208.053ZM216.873 219.684C213.205 221.96 210.714 226.599 210.862 230.877C211.063 236.67 211.387 238.87 212.011 238.679C212.771 238.446 219.001 243.666 218.527 244.139C218.328 244.337 246.656 244.275 281.478 244C342.997 243.514 344.854 243.443 346.998 241.502C354.062 235.107 353.434 224.675 345.701 219.96C342.617 218.079 340.258 218.008 281 218.03C225.912 218.051 219.226 218.223 216.873 219.684ZM234 266.024C225.39 266.334 218.614 267.044 217.32 267.771C209.08 272.398 208.732 285.202 216.699 290.602C219.376 292.416 222.255 292.5 281.5 292.5H343.5L346.707 290.094C354.699 284.097 353.353 271.813 344.264 267.793C340.16 265.977 336.999 265.844 294.192 265.677C269.061 265.58 241.975 265.736 234 266.024ZM154.5 326.901C152.85 327.942 142.506 337.839 131.514 348.892L111.528 368.991L102.461 359.962C97.181 354.703 92.164 350.6 90.447 350.136C83.962 348.383 77.093 352.157 74.95 358.651C72.918 364.808 74.426 367.512 87.368 380.926C94.041 387.842 101.075 394.725 103 396.222C107.874 400.013 113.386 399.974 118.6 396.111C126.094 390.558 172.835 342.608 173.539 339.75C174.544 335.673 173.287 332.087 169.541 328.341C166.775 325.575 165.451 325.001 161.85 325.004C159.31 325.006 156.252 325.795 154.5 326.901ZM218.27 336.483C209.631 340.238 208.5 354.167 216.414 359.352C218.682 360.838 225.02 361 280.918 361C322.788 361 343.651 360.653 345.203 359.932C353.998 355.841 353.835 341.599 344.938 336.827C341.745 335.114 337.774 335.002 281.516 335.039C232.251 335.071 220.921 335.33 218.27 336.483ZM379 349.941C379 350.459 379.445 351.157 379.989 351.493C380.555 351.843 380.723 351.442 380.382 350.552C379.717 348.82 379 348.503 379 349.941ZM221.073 383.729C212.546 385.333 208.276 394.832 212.453 402.91C215.675 409.139 213.758 408.969 281.437 409.015C317.904 409.04 343.734 408.675 344.762 408.12C351.605 404.432 354.031 395.231 349.804 389C348.433 386.977 345.968 384.996 343.965 384.306C341.424 383.431 324.906 383.134 282 383.193C249.825 383.236 222.408 383.478 221.073 383.729Z" fill="#C7AB6C"/>
</svg>
