<svg width="804" height="736" viewBox="0 0 804 736" fill="none" xmlns="http://www.w3.org/2000/svg">
<path fill-rule="evenodd" clip-rule="evenodd" d="M661 1.00798C628.012 5.54598 602.393 18.297 580.449 41.096C566.419 55.673 558.269 68.737 551.991 86.716L548.805 95.841L540.652 92.328C510.497 79.333 480.453 70.926 444 65.281C425.935 62.483 376.535 62.783 357.561 65.806C331.531 69.953 307.636 76.155 288.18 83.814C280.161 86.971 278.926 87.764 279.336 89.492C281.821 99.96 282.968 106.016 282.983 108.75C283.002 112.449 283.607 112.622 288.782 110.413C344.007 86.839 412.122 81.697 473.5 96.468C493.735 101.337 515.95 109.084 535.875 118.218L543.251 121.599L543.528 134.049C543.681 140.897 544.328 149.361 544.966 152.857C547.86 168.707 554.393 185.513 563.446 200.4C565.42 203.644 566.792 206.541 566.496 206.837C566.2 207.133 564.055 205.525 561.729 203.265C555.8 197.502 537.061 183.677 525.062 176.214C485.341 151.508 442.657 140.521 393.5 142.349C340.519 144.32 298.117 159.555 255 192.111C248.675 196.887 242.194 202.175 240.597 203.862C235.824 208.905 235.672 206.324 240.351 199.687C250.464 185.345 256.484 170.711 259.574 152.961C262.626 135.434 260.561 108.681 254.832 91.5C239.344 45.057 199.511 10.693 151.5 2.35398C140.468 0.436984 115.093 0.998977 104.5 3.39398C51.647 15.344 13.776 52.926 2.85399 104.266C1.12799 112.383 0.672995 117.914 0.655995 131C0.631995 149.468 2.455 160.624 8.121 176.688C21.27 213.97 51.855 243.621 89.854 255.927C103.81 260.446 111.149 261.501 128.5 261.483C146.29 261.463 154.156 260.196 171.32 254.58L181.5 251.25L189.038 254.327L196.576 257.403L188.92 272.596C172.765 304.656 165 338.032 165 375.409C165 407.898 171.431 437.715 185.225 469.187C189.358 478.615 191.041 481.424 193 482.157C203.72 486.169 224.293 497.162 228.887 501.333C232.068 504.221 231.508 503.043 224.921 493C203.659 460.584 191.687 424.949 188.893 385.768C187.792 370.33 188.191 362.562 190.053 363.186C193.469 364.33 200.745 371.855 205.951 379.628C209.313 384.648 214.693 391.043 217.908 393.838C221.362 396.842 223.954 399.977 224.245 401.502C224.516 402.921 224.089 407.102 223.296 410.791C221.036 421.3 221.324 434.384 223.961 440.98C227.046 448.697 233.624 458.231 242.556 467.93C252.893 479.156 255.723 485.458 262.382 512.074C265.351 523.939 268.76 535.57 269.959 537.92C272.21 542.332 272.242 544.201 270.02 541.524C269.324 540.686 268.159 540 267.431 540C266.576 540 268.007 543.937 271.481 551.142C274.437 557.27 277.616 565.095 278.546 568.531C280.228 574.746 280.274 574.8 287.368 578.845C313.334 593.649 343.753 604.151 373.5 608.583C389.877 611.023 419.153 611.02 435.5 608.578C486.937 600.892 533.764 577.219 571.08 540.035C590.774 520.412 603.672 502.216 616.115 476.5C630.175 447.441 637.022 421.017 638.94 388.411C641.474 345.333 633.315 306.428 613.949 269.253L608.091 258.007L615.295 254.689L622.5 251.371L631.5 254.579C658.963 264.368 687.721 264.858 714.199 255.987C740.446 247.193 766.214 228.066 780.195 207C817.043 151.479 810.353 81.769 763.941 37.639C744.78 19.42 722.796 7.75497 697.5 2.38497C688.806 0.538975 669.655 -0.183024 661 1.00798ZM148.75 27.512C170.984 31.73 190.199 41.912 206.061 57.881C221.022 72.944 229.747 89.211 234.018 110.008C235.827 118.811 236.101 122.834 235.72 135C235.064 156.021 230.859 169.273 219.324 186.678L212.814 196.5L213.35 203C213.644 206.575 215.031 216.007 216.432 223.961C217.832 231.914 218.644 238.756 218.236 239.164C217.827 239.573 209.244 236.778 199.162 232.953C189.08 229.129 179.951 226 178.876 226C177.8 226 175.251 226.847 173.21 227.882C166.137 231.471 150.451 235.836 140.5 236.985C110.753 240.419 78.602 229.255 57.002 207.991C29.032 180.455 18.389 138.806 29.536 100.507C37.378 73.565 54.473 52.632 80.096 38.598C99.731 27.844 127.155 23.416 148.75 27.512ZM698.248 28.365C715.829 33.284 732.201 42.265 745.388 54.225C769.229 75.848 781.581 108.556 778.259 141.269C773.694 186.224 745.165 221.336 703.304 233.519C692.629 236.625 675.725 238.413 665.136 237.555C655.173 236.748 640.765 233.227 632.626 229.61C629.395 228.175 625.498 227 623.966 227C622.434 227 613.377 229.879 603.84 233.398C594.303 236.917 586.367 239.672 586.205 239.52C586.042 239.367 587.084 230.786 588.52 220.45C589.956 210.114 590.84 200.501 590.486 199.087C590.131 197.673 587.872 193.357 585.465 189.496C575.735 173.885 570.884 160.07 568.881 142.265C566.151 118.009 573.503 89.023 586.957 71C592.802 63.169 605.47 50.528 612.5 45.513C623.917 37.367 639.981 30.369 654 27.435C662.864 25.58 690.357 26.158 698.248 28.365ZM669.5 62.403C664.819 64.469 662.757 67.469 662.227 72.99L661.746 78L642.623 78.004C625.447 78.007 623.175 78.205 620.311 79.952C614.393 83.56 614.038 93.525 619.669 97.955C621.863 99.68 623.715 100 631.507 100H640.744L641.379 103.971C643.197 115.34 650.749 133.517 658.315 144.737L661.847 149.974L654.174 157.086C649.953 160.998 642.329 166.944 637.23 170.3C629.391 175.459 627.789 176.974 626.849 180.11C625.423 184.869 626.375 188.529 629.974 192.128C633.821 195.975 639.517 196.049 645.912 192.336C654.095 187.583 664.649 180.201 671.171 174.669L677.546 169.26L682.839 174.126C694.489 184.839 710.688 195 716.114 195C720.747 195 725.397 191.356 727.013 186.461C728.851 180.893 726.118 176.671 716.379 170.034C707.293 163.843 696.352 154.527 694.833 151.688C694.035 150.197 694.669 148.633 697.993 143.894C703.988 135.348 710.519 121.689 713.455 111.558C714.855 106.728 716 102.152 716 101.388C716 100.394 717.381 100 720.865 100C724.252 100 726.52 99.379 728.331 97.955C733.618 93.795 733.618 84.205 728.331 80.045C725.904 78.137 724.367 78 705.365 78H685V73.635C685 68.713 682.571 64.864 677.961 62.48C674.509 60.695 673.392 60.685 669.5 62.403ZM119.758 67.976C116.807 70.297 114.477 75.708 105.106 102C83.676 162.127 77.66 179.836 77.632 182.879C77.584 187.969 80.699 190 88.555 190C97.077 190 98.989 188.213 103.91 175.645L107.77 165.79L130.618 165.928C143.184 166.004 153.735 166.389 154.063 166.783C154.391 167.177 156.152 171.442 157.977 176.261C159.802 181.079 162.415 186.142 163.784 187.511C166.01 189.737 167.096 190 174.065 190C182.98 190 185 188.816 185 183.592C185 180.697 148.971 81.023 144.623 71.889C142.367 67.15 139.529 66 130.088 66C123.815 66 121.773 66.391 119.758 67.976ZM140.357 126.25L145.947 142H130.995H116.043L122.412 123.75C125.915 113.713 129.322 104.15 129.982 102.5L131.184 99.5L132.976 105C133.961 108.025 137.283 117.588 140.357 126.25ZM691.376 102.75C689.804 109.275 683.674 122.764 679.758 128.314L677.772 131.129L675.291 127.477C671.827 122.38 668.2 114.192 666.005 106.516L664.141 100H678.09H692.038L691.376 102.75ZM431 168.106C438.587 169.099 455.225 172.085 455.827 172.561C456.007 172.704 451.428 178.858 445.651 186.238C439.874 193.617 434.185 201.503 433.007 203.761C428.817 211.801 428.572 226.291 432.446 236.972C434.936 243.836 437.476 246 443.044 246C447.034 246 448.509 245.386 452.869 241.915C455.691 239.668 457.998 237.756 457.996 237.665C457.993 237.574 456.878 234.35 455.517 230.5C452.638 222.357 452.423 219.017 454.515 214.971C455.655 212.767 470.905 193.375 475.879 187.804C476.22 187.422 476.547 189.679 476.603 192.821C476.719 199.21 478.108 202.439 484.772 211.808C493.7 224.361 491.391 230.637 474.423 239.941C468.965 242.933 457.75 249.501 449.5 254.537C441.25 259.572 432.312 264.959 429.637 266.507C423.629 269.985 421.361 273.583 420.5 281C419.595 288.798 417.323 292.086 409.089 297.51C400.481 303.182 398 306.875 398 314.023C398 318.888 398.318 319.612 401.993 323.108C408.369 329.174 418.369 329.639 430.016 324.412C439.552 320.133 442.755 315.611 447.351 299.94C448.284 296.76 450.517 292.588 452.569 290.19C459.152 282.499 464.577 284.623 481.24 301.413C489.077 309.31 491.134 310.851 494.623 311.439C499.876 312.323 504.832 310.332 510.592 305.022C512.952 302.847 516.077 300.768 517.538 300.401C518.999 300.034 526.872 299.949 535.034 300.211C551.82 300.75 555 301.813 555 306.888C555 310.972 552.065 314.163 541.674 321.378C525.835 332.375 513.525 338.331 504.029 339.591C498.043 340.385 489.241 338.154 480 333.5C470.648 328.79 462.022 326.622 456.113 327.496C450.824 328.278 432.792 335.432 422.532 340.819C408.638 348.113 399.896 359.995 394.441 379C388.044 401.281 392.79 417.499 408.887 428.361C417.892 434.439 421.951 434.902 440.5 431.973C456.572 429.435 470.168 434.254 475.839 444.5C477.191 446.941 477.593 451.505 478 469L478.5 490.5L483.695 502.524C486.552 509.137 490.052 518.227 491.473 522.725C494.212 531.396 498.006 536.462 502.631 537.622C511.034 539.731 521.383 535.144 532.202 524.514C547.206 509.773 555.181 494.141 559.503 471C562.762 453.549 564.002 448.938 567.089 442.798C571.27 434.481 577.497 424.905 586.736 412.58C590.892 407.036 595.117 400.7 596.124 398.5C599.488 391.154 598.312 384.555 592.112 375.996C589.982 373.056 589 370.548 589 368.05C589 360.119 593.42 360.116 605.959 368.036L615.417 374.011L615.142 382.756C612.376 470.555 550.329 550.58 464.546 576.986C441.271 584.15 423.026 586.488 396.516 585.701C376.427 585.105 364.147 583.164 344.5 577.479C333.326 574.246 314.3 566.3 311.838 563.838C306.37 558.37 313.438 528.511 324.18 511.697C326.006 508.839 332.225 501.55 338 495.5C350.136 482.786 353.502 476.864 357.429 461.319C361.92 443.537 360.282 432.982 352.176 427.474C350.191 426.125 343.759 423.419 337.884 421.461C324.405 416.97 318.979 413.183 307.545 400.286C297.282 388.71 290.82 383.282 282.364 379.136C272.552 374.325 267.675 373.646 248.559 374.427C229.097 375.223 230.554 375.736 225.514 366.3C223.986 363.44 219.484 357.997 215.508 354.203C206.984 346.07 205.951 343.121 208.525 334.266C210.694 326.803 215.37 322 220.466 322C225.091 322 227.211 323.132 233.789 329.114C239.406 334.222 243.549 335.682 249.34 334.596C256.216 333.306 259.727 326.483 263.573 306.935C265.042 299.471 267.355 291.16 268.778 288.234C271.955 281.703 280.255 273.717 287.228 270.483C292.388 268.089 294.531 267.54 310.185 264.599C314.412 263.805 319.587 262.343 321.685 261.35C327.381 258.655 333.57 251.732 336.105 245.221C339.307 236.997 339.78 221.603 337.207 209.311C334.059 194.27 337.045 183.635 346.317 176.858C351.897 172.78 353.713 172.135 366 169.871C386.333 166.125 410.786 165.461 431 168.106ZM106.707 292.853C91.913 346.423 92.761 410.023 108.974 462.792C111.052 469.553 112.921 475.255 113.129 475.463C113.337 475.671 116.656 475.232 120.504 474.487C124.352 473.743 129.605 472.856 132.179 472.516L136.857 471.899L134.879 466.199C131.669 456.953 126.22 435.339 124.103 423.448C117.93 388.791 118.948 349.496 126.986 312.091C128.592 304.616 130.796 295.356 131.884 291.514C132.972 287.672 133.781 284.47 133.681 284.398C133.581 284.326 128.071 284.028 121.435 283.736L109.371 283.206L106.707 292.853ZM680.5 284.721C676.1 284.896 671.971 285.229 671.324 285.46C670.467 285.766 670.67 287.598 672.068 292.19C681.128 321.955 685.584 363.124 683.087 394C678.855 446.325 664.207 490.035 637.511 530C599.306 587.195 541.807 629.453 478.466 646.89C450.437 654.606 427.275 657.443 398.5 656.686C361.515 655.714 330.303 648.901 296.259 634.371C290.627 631.967 285.789 630 285.509 630C285.229 630 284.994 631.237 284.987 632.75C284.98 634.263 284.095 639.758 283.021 644.962C281.515 652.261 281.347 654.603 282.285 655.206C285.741 657.43 310.243 666.357 322.5 669.859C354.261 678.934 374.187 681.404 410 680.707C436.612 680.189 446.558 679.099 467.899 674.363C492.882 668.818 512.126 661.973 536.5 649.96C577.526 629.74 612.188 601.584 642.766 563.635C676.137 522.222 696.911 473.704 704.696 419C707.22 401.267 707.204 348.97 704.671 331.182C702.704 317.371 698.752 297.193 696.46 289.25C695.013 284.239 694.797 284.009 691.722 284.201C689.95 284.312 684.9 284.546 680.5 284.721ZM131.099 495.118C115.071 496.976 96.586 503.415 80.919 512.597C70.087 518.946 51.363 537.164 44.02 548.5C31.317 568.11 25.552 586.027 24.331 609.696C23.273 630.195 27.156 649.296 35.999 667.088C56.921 709.183 93.822 733.652 139.5 735.719C163.202 736.791 183.089 732.117 203.342 720.713L210.185 716.861L233.842 717.68C246.854 718.131 258.834 718.373 260.464 718.217C267.827 717.515 273.505 710.786 272.651 703.776C272.352 701.324 268.908 694.785 262.57 684.637L252.942 669.222L255.08 663.861C261.666 647.347 264.316 633.344 264.328 615C264.338 598.563 262.648 587.88 257.878 574.225C251.509 555.99 242.469 542.375 227.047 527.79C211.436 513.026 194.916 503.797 174.77 498.585C157.986 494.242 146.507 493.331 131.099 495.118ZM170 522.304C194.116 529.575 211.715 542.327 224.986 562.148C235.929 578.492 240.381 593.983 240.319 615.5C240.286 627.225 239.867 631.057 237.739 639.085C235.031 649.304 230.11 662.402 226.965 667.764L225.051 671.029L231.593 681.613C235.191 687.435 237.978 692.356 237.784 692.549C237.591 692.742 232.048 692.483 225.467 691.974C218.885 691.464 212.375 691.037 211 691.025C208.612 691.004 208.514 690.767 208.822 685.751C209.247 678.808 206.734 667.165 203.161 659.53C199.097 650.845 189.741 641.178 180.752 636.375L173.5 632.5H145H116.5L109.5 635.989C93.007 644.21 80.105 664.29 79.964 681.96L79.927 686.5L74.294 680.521C68.092 673.939 60.43 662.726 56.641 654.688C50.061 640.728 47.497 627.606 48.268 611.843C50.497 566.274 80.623 530.41 125 520.494C129.596 519.467 135.895 519.144 146.5 519.392C159.053 519.684 162.887 520.159 170 522.304ZM134.88 547.38C118.914 551.682 106.118 569.323 106.024 587.161C105.973 596.958 112.055 609.889 119.32 615.43C135.146 627.501 157.612 626.015 172.062 611.94C190.263 594.211 185.273 563.382 162.237 551.241C152.8 546.268 143.749 544.99 134.88 547.38Z" fill="#B9984C"/>
</svg>
