<svg width="752" height="594" viewBox="0 0 752 594" fill="none" xmlns="http://www.w3.org/2000/svg">
<path fill-rule="evenodd" clip-rule="evenodd" d="M720.887 1.97299C706.035 6.85999 698.291 12.93 660.5 49.312C608.514 99.36 576.467 131.785 546.607 164.548C540.615 171.122 531.615 180.985 526.607 186.468C515.356 198.782 508.804 206.014 498.5 217.491C494.1 222.392 487.8 229.363 484.5 232.982C475.701 242.633 467.545 252.082 467.188 253.039C466.766 254.167 472.065 259.206 483.444 268.5C486.137 270.7 490.213 274.075 492.5 276C494.787 277.925 498.863 281.3 501.556 283.5C504.25 285.7 508.039 288.872 509.977 290.55C511.915 292.227 515.525 295.14 518 297.024C520.475 298.907 522.725 300.7 523 301.008C523.461 301.525 532.174 308.532 534.49 310.249C535.045 310.661 537.3 312.563 539.5 314.476C541.7 316.389 543.95 317.956 544.5 317.958C545.35 317.962 549.451 313.35 559.5 301.09C560.6 299.748 563.525 296.336 566 293.508C568.475 290.68 571.85 286.613 573.5 284.47C575.15 282.326 578.3 278.472 580.5 275.905C586.375 269.05 590.204 264.356 600.603 251.261C605.741 244.793 610.541 238.825 611.272 238C612.002 237.175 616.839 230.875 622.02 224C627.202 217.125 631.818 211.05 632.278 210.5C632.737 209.95 635.451 206.321 638.307 202.436C641.163 198.551 644.744 193.826 646.265 191.936C649.922 187.392 648.56 189.198 665.533 166.373C673.765 155.303 681.175 145.239 682 144.008C682.825 142.778 684.887 139.91 686.581 137.635C691.617 130.877 712.303 100.474 716.677 93.403C717.324 92.356 720.699 87 724.177 81.5C731.662 69.663 732.69 67.979 733.646 66C734.044 65.175 736.057 61.728 738.119 58.341C740.18 54.953 742.813 50.003 743.969 47.341C745.125 44.678 746.499 41.728 747.022 40.784C747.999 39.023 749.405 33.907 751.071 26.048C752.116 21.12 751.554 16.128 749.416 11.357C747.823 7.80098 742.003 2.33198 738.324 0.932981C734.533 -0.508019 727.076 -0.0640103 720.887 1.97299ZM277.5 14.02C256.968 16.556 235.843 20.286 223.755 23.508C203.395 28.934 199.903 29.923 197.5 30.943C196.4 31.41 191.45 33.258 186.5 35.049C173.852 39.626 158.93 46.892 145.227 55.146C133.853 61.997 117.253 73.452 111.848 78.18C110.389 79.456 105.98 83.164 102.05 86.42C88.504 97.642 69.074 119.227 55.24 138.42C45.02 152.598 27.451 185.736 21 203C19.87 206.025 18.555 209.4 18.078 210.5C15.385 216.716 9.66001 235.705 7.37601 246C0.394008 277.468 -1.579 308.873 1.452 340.301C2.829 354.575 3.302 357.632 6.668 374C8.537 383.089 13.478 401.098 15.516 406.25C16.332 408.313 17.729 411.913 18.62 414.25C26.745 435.569 37.328 456.092 48.975 473.113C67.322 499.927 99.563 530.237 129.313 548.64C143.321 557.304 158.907 565.478 170 569.976C173.025 571.203 176.4 572.599 177.5 573.079C187.002 577.226 222.375 587 227.88 587C229.118 587 230.975 587.451 232.005 588.003C235.858 590.065 235.079 586.898 230.682 582.625C223.484 575.629 221.566 570.454 221.556 558C221.549 548.141 221.745 547.112 224.775 541.146C226.764 537.228 230.698 532.096 235.031 527.762C238.898 523.895 244.28 517.305 246.992 513.116C249.704 508.927 252.278 505.05 252.712 504.5C254.071 502.776 258 494.336 258 493.14C258 492.513 258.342 492 258.759 492C259.176 492 260.562 488.962 261.838 485.25C263.114 481.538 264.51 477.6 264.939 476.5C265.716 474.509 266.979 470.276 271.057 456C273.365 447.918 281.679 430 283.12 430C283.604 430 284 429.554 284 429.009C284 427.27 291.023 418.716 298.051 411.895C307.718 402.512 322.424 393.141 330.041 391.51C331.943 391.102 333.95 390.413 334.5 389.978C335.05 389.543 337.602 388.874 340.17 388.492L344.84 387.797L355.756 366.148C361.76 354.242 370.742 336.625 375.717 327C380.692 317.375 386.952 305.225 389.629 300C392.305 294.775 394.721 290.275 394.998 290C395.274 289.725 397.021 286.462 398.88 282.748L402.26 275.996L397.75 267.248C389.203 250.666 388.123 248.483 386.011 243.5C384.845 240.75 383.482 237.6 382.983 236.5C381.616 233.486 380 223.274 380 217.648C380 192.01 393.446 175.567 425.5 162.006C433.259 158.724 433.984 158.4 442.5 154.429C454.392 148.882 462.876 142.898 471.2 134.186C480.375 124.583 484.687 116.448 486.261 105.777C487.504 97.344 486.198 85.524 483.438 80.233C482.654 78.73 482.01 77.105 482.006 76.621C481.993 74.708 473.469 63.22 468.56 58.5C459.559 49.844 447.784 41 445.26 41C444.659 41 444.017 40.658 443.833 40.24C443.65 39.821 440.125 37.852 436 35.864C412.142 24.363 387.881 17.704 354.542 13.506C337.941 11.415 296.333 11.693 277.5 14.02ZM280.5 76C280.84 76.55 281.83 77 282.699 77C285.779 77 293.343 81.557 298.074 86.264C305.365 93.516 308.424 100.6 308.848 111.21C309.393 124.857 304.94 134.272 293.385 143.898C291.594 145.39 283.889 148.6 278.846 149.955C270.551 152.185 258.966 149.985 250.664 144.605C244.059 140.325 240.984 136.95 236.901 129.5C233.775 123.798 233.611 122.979 233.601 113C233.593 104.95 233.987 101.8 235.289 99.5C236.223 97.85 236.99 95.938 236.994 95.25C236.997 94.563 237.42 94 237.933 94C238.446 94 239.157 93.082 239.513 91.959C239.869 90.837 241.975 88.122 244.192 85.927C251.611 78.582 259.956 75.304 271.691 75.125C276.216 75.056 280.159 75.448 280.5 76ZM156.566 147.091C169.635 149.495 179.26 156.404 185 167.5C188.355 173.986 188.5 174.705 188.5 184.883C188.5 197.422 186.782 202.111 179.231 210.184C171.302 218.66 163.273 221.998 150.809 221.999C146.029 222 141.84 221.55 141.5 221C141.16 220.45 140.114 220 139.176 220C137.507 220 130.918 216.826 128.646 214.927C123.045 210.245 120.526 207.206 117.353 201.301C115.281 197.445 113 188.335 113 183.917C113 171.598 122.629 155.983 133.295 151.006C136.585 149.47 146.172 146.656 150.066 146.083C150.378 146.037 153.303 146.491 156.566 147.091ZM114.484 278.322C125.574 281.894 134.403 288.99 139.022 298.044C141.601 303.099 143.064 316.167 141.809 322.948C139.809 333.761 131.975 343.741 121.305 349.069C115.076 352.18 113.73 352.469 105.401 352.484C99.804 352.494 95.186 351.978 93.401 351.144C80.12 344.937 75.569 340.916 70.747 331.131C67.877 325.308 67.611 323.938 67.637 315.131C67.663 306.284 67.934 304.955 70.965 298.804C75.992 288.605 82.809 282.52 93.274 278.89C98.909 276.936 109.314 276.657 114.484 278.322ZM441.374 286.79C440.793 287.731 438.836 291.2 437.026 294.5C435.216 297.8 433.41 300.95 433.013 301.5C432.616 302.05 430.566 305.65 428.459 309.5C426.352 313.35 422.89 319.65 420.766 323.5C418.642 327.35 416.648 331.288 416.336 332.25C416.023 333.212 415.418 334 414.992 334C414.566 334 413.907 335.233 413.529 336.74C413.151 338.247 412.54 339.71 412.171 339.991C411.802 340.272 410.657 342.076 409.627 344.001C408.597 345.925 406.161 350.425 404.214 354C402.267 357.575 399.285 363.2 397.587 366.5C395.889 369.8 394.223 372.725 393.885 373C393.546 373.275 392.923 374.625 392.5 376C392.077 377.375 391.454 378.725 391.115 379C389.703 380.148 385.381 389.644 385.758 390.774C385.983 391.448 387.003 392 388.024 392C389.046 392 390.129 392.4 390.432 392.889C390.734 393.378 392.107 394.061 393.484 394.407C399.239 395.851 411.841 404.776 420.663 413.654C425.703 418.726 430.107 423.763 430.451 424.846C431.689 428.747 434.077 428.226 439.956 422.771C443.081 419.872 449.188 414.35 453.529 410.5C457.869 406.65 464.363 400.771 467.96 397.435C471.557 394.099 476.735 389.374 479.467 386.935C488.992 378.43 519 348.193 519 347.101C519 346.495 518.663 345.993 518.25 345.984C517.837 345.975 515.925 344.63 514 342.995C512.075 341.359 510.045 339.679 509.49 339.261C506.856 337.278 498.444 330.505 498 330.01C497.725 329.703 494.35 326.999 490.5 324C486.65 321.001 483.275 318.301 483 318C482.725 317.699 479.35 314.999 475.5 312C471.65 309.001 468.275 306.306 468 306.01C467.725 305.714 463 301.878 457.5 297.486C452 293.094 447.275 289.275 447 289C446.725 288.725 445.584 287.731 444.466 286.79C442.546 285.177 442.371 285.177 441.374 286.79ZM588.833 323.848C588.518 324.651 581.224 333.477 578 336.958C577.175 337.849 574.965 340.36 573.088 342.539C560.995 356.58 552.5 365.527 528.014 390.016C512.881 405.15 496.004 421.575 490.51 426.516C485.015 431.457 477.815 438.031 474.51 441.124C471.204 444.217 466.291 448.717 463.591 451.124C460.892 453.531 455.871 458.2 452.435 461.5L446.187 467.5L445.711 480C445.448 486.875 444.678 494.075 443.999 496C434.662 522.468 427.233 534.888 411.062 551.065C393.647 568.488 373.93 580.375 348.858 588.566C340.866 591.177 337.488 592.822 338.35 593.683C338.865 594.198 359.442 592.328 368.5 590.944C386.472 588.196 412.161 582.638 423.214 579.105C433.799 575.722 438.86 574.037 441.042 573.167C456.937 566.83 463.116 564.076 474.5 558.255C485.877 552.438 489.745 550.337 493.5 547.939C495.15 546.884 497.175 545.712 498 545.334C498.825 544.956 499.725 544.364 500 544.02C500.275 543.676 502.3 542.307 504.5 540.979C506.7 539.65 508.95 538.199 509.5 537.753C510.05 537.308 514.614 533.919 519.641 530.222C539.677 515.489 563.278 492.395 575.468 475.591C577.101 473.341 578.706 471.275 579.036 471C579.697 470.448 585.945 460.551 590.27 453.205C591.793 450.617 594.766 444.9 596.877 440.5C610.091 412.949 613.495 398.128 612.724 371.5C612.237 354.682 611.454 350.885 606.264 340.172C601.862 331.086 590.26 320.22 588.833 323.848ZM168.361 405.84C177.823 409.677 184.991 416.209 189.111 424.748C192.082 430.907 192.369 432.334 192.375 441C192.382 449.783 192.129 451.012 189.015 457.285C183.59 468.217 175.704 474.294 162.708 477.558C156.652 479.079 155.645 479.08 148.972 477.562C135.598 474.52 127.604 468.541 121.91 457.322C118.702 451.002 118.5 450.01 118.5 440.552C118.5 431.814 118.84 429.775 121.101 424.954C129.745 406.525 149.924 398.364 168.361 405.84ZM347.447 425.844C325.645 431.808 312.787 446.11 305.504 472.5C302.14 484.69 297.739 497.672 294.91 503.753C293.309 507.192 292 510.244 292 510.536C292 513.503 268.456 547.651 263.133 552.405C261.96 553.453 261 554.948 261 555.728C261 556.927 265.111 557.074 287.75 556.679C317.072 556.169 333.766 554.159 343.5 549.968C344.6 549.495 347.975 548.093 351 546.854C354.025 545.615 358.575 543.341 361.111 541.801C363.646 540.26 366.234 539 366.861 539C367.487 539 368 538.619 368 538.153C368 537.687 368.849 536.899 369.886 536.403C378.346 532.353 394.475 515.431 400.294 504.5C409.276 487.627 410.389 467.865 403.194 453C393.247 432.448 368.096 420.197 347.447 425.844Z" fill="#BF9C5C"/>
<path fill-rule="evenodd" clip-rule="evenodd" d="M726.813 0.683005C727.534 0.972005 728.397 0.936011 728.729 0.604011C729.061 0.272011 728.471 0.0360014 727.417 0.0790014C726.252 0.127001 726.015 0.364005 726.813 0.683005ZM722.813 1.68301C723.534 1.97201 724.397 1.93601 724.729 1.60401C725.061 1.27201 724.471 1.036 723.417 1.079C722.252 1.127 722.015 1.36401 722.813 1.68301ZM738 1.39301C738 1.60901 738.698 2.05401 739.552 2.38201C740.442 2.72301 740.843 2.55501 740.493 1.98901C739.906 1.03801 738 0.583012 738 1.39301ZM715 4.00001C714.175 4.53301 713.95 4.969 714.5 4.969C715.05 4.969 716.175 4.53301 717 4.00001C717.825 3.46701 718.05 3.03101 717.5 3.03101C716.95 3.03101 715.825 3.46701 715 4.00001ZM745 6.50001C746.866 8.42501 748.617 10 748.892 10C749.167 10 747.866 8.42501 746 6.50001C744.134 4.57501 742.383 3.00001 742.108 3.00001C741.833 3.00001 743.134 4.57501 745 6.50001ZM706.732 8.536C704.679 9.931 703 11.287 703 11.55C703 11.813 704.8 10.837 707 9.381C710.493 7.07 711.674 6.00001 710.732 6.00001C710.585 6.00001 708.785 7.141 706.732 8.536ZM293.768 12.725C295.565 12.947 298.265 12.943 299.768 12.715C301.271 12.486 299.8 12.304 296.5 12.31C293.2 12.315 291.971 12.502 293.768 12.725ZM339.75 12.706C340.988 12.944 343.012 12.944 344.25 12.706C345.488 12.467 344.475 12.272 342 12.272C339.525 12.272 338.512 12.467 339.75 12.706ZM749.825 14.674C750.251 16.767 750.503 17.019 750.794 15.644C751.011 14.623 750.751 13.351 750.218 12.818C749.592 12.192 749.452 12.849 749.825 14.674ZM284.25 13.689C285.212 13.941 286.788 13.941 287.75 13.689C288.712 13.438 287.925 13.232 286 13.232C284.075 13.232 283.288 13.438 284.25 13.689ZM349.25 13.689C350.212 13.941 351.788 13.941 352.75 13.689C353.712 13.438 352.925 13.232 351 13.232C349.075 13.232 348.288 13.438 349.25 13.689ZM274.813 14.683C275.534 14.972 276.397 14.936 276.729 14.604C277.061 14.272 276.471 14.036 275.417 14.079C274.252 14.127 274.015 14.364 274.813 14.683ZM359.813 14.683C360.534 14.972 361.397 14.936 361.729 14.604C362.061 14.272 361.471 14.036 360.417 14.079C359.252 14.127 359.015 14.364 359.813 14.683ZM264.75 15.662C265.438 15.94 266.563 15.94 267.25 15.662C267.938 15.385 267.375 15.158 266 15.158C264.625 15.158 264.063 15.385 264.75 15.662ZM366.75 15.662C367.438 15.94 368.563 15.94 369.25 15.662C369.938 15.385 369.375 15.158 368 15.158C366.625 15.158 366.063 15.385 366.75 15.662ZM695.872 16.75C694.629 18.336 694.664 18.371 696.25 17.128C697.212 16.373 698 15.585 698 15.378C698 14.555 697.179 15.084 695.872 16.75ZM260.813 16.683C261.534 16.972 262.397 16.936 262.729 16.604C263.061 16.272 262.471 16.036 261.417 16.079C260.252 16.127 260.015 16.364 260.813 16.683ZM371.813 16.683C372.534 16.972 373.397 16.936 373.729 16.604C374.061 16.272 373.471 16.036 372.417 16.079C371.252 16.127 371.015 16.364 371.813 16.683ZM253.813 17.683C254.534 17.972 255.397 17.936 255.729 17.604C256.061 17.272 255.471 17.036 254.417 17.079C253.252 17.127 253.015 17.364 253.813 17.683ZM246.75 18.662C247.438 18.94 248.563 18.94 249.25 18.662C249.938 18.385 249.375 18.158 248 18.158C246.625 18.158 246.063 18.385 246.75 18.662ZM382.75 18.662C383.438 18.94 384.563 18.94 385.25 18.662C385.938 18.385 385.375 18.158 384 18.158C382.625 18.158 382.063 18.385 382.75 18.662ZM690.924 20.75L688.5 23.5L691.25 21.076C692.763 19.742 694 18.505 694 18.326C694 17.541 693.19 18.18 690.924 20.75ZM751.195 21.5C751.215 23.15 751.439 23.704 751.693 22.731C751.947 21.758 751.93 20.408 751.656 19.731C751.382 19.054 751.175 19.85 751.195 21.5ZM229.5 22C228.239 22.542 228.055 22.859 229 22.859C229.825 22.859 231.4 22.473 232.5 22C233.761 21.458 233.945 21.141 233 21.141C232.175 21.141 230.6 21.527 229.5 22ZM395.813 21.683C396.534 21.972 397.397 21.936 397.729 21.604C398.061 21.272 397.471 21.036 396.417 21.079C395.252 21.127 395.015 21.364 395.813 21.683ZM218 25C216.172 26.181 217.751 26.181 220.5 25C221.819 24.433 221.989 24.122 221 24.086C220.175 24.055 218.825 24.467 218 25ZM679.462 31.25L674.5 36.5L679.75 31.538C684.628 26.926 685.459 26 684.712 26C684.554 26 682.192 28.363 679.462 31.25ZM750.158 28C750.158 29.375 750.385 29.938 750.662 29.25C750.94 28.563 750.94 27.438 750.662 26.75C750.385 26.063 750.158 26.625 750.158 28ZM207 28C205.172 29.181 206.751 29.181 209.5 28C210.819 27.433 210.989 27.122 210 27.086C209.175 27.055 207.825 27.467 207 28ZM415.5 28C418.249 29.181 419.828 29.181 418 28C417.175 27.467 415.825 27.055 415 27.086C414.011 27.122 414.181 27.433 415.5 28ZM197.558 30.907C197.249 31.405 197.898 31.578 198.999 31.29C201.334 30.679 201.629 30 199.559 30C198.766 30 197.866 30.408 197.558 30.907ZM423 30.393C423 30.609 423.698 31.054 424.552 31.382C425.442 31.723 425.843 31.555 425.493 30.989C424.906 30.038 423 29.583 423 30.393ZM430 33.393C430 33.609 430.698 34.054 431.552 34.382C432.442 34.723 432.843 34.555 432.493 33.989C431.906 33.038 430 32.583 430 33.393ZM435 35.43C435 35.705 435.9 36.411 437 37C438.1 37.589 439 37.845 439 37.57C439 37.295 438.1 36.589 437 36C435.9 35.411 435 35.155 435 35.43ZM181 37C180.175 37.533 179.95 37.969 180.5 37.969C181.05 37.969 182.175 37.533 183 37C183.825 36.467 184.05 36.031 183.5 36.031C182.95 36.031 181.825 36.467 181 37ZM176 39C175.175 39.533 174.95 39.969 175.5 39.969C176.05 39.969 177.175 39.533 178 39C178.825 38.467 179.05 38.031 178.5 38.031C177.95 38.031 176.825 38.467 176 39ZM746.564 39.707C746.022 41.132 746.136 41.247 747.124 40.267C747.808 39.588 748.115 38.781 747.807 38.474C747.499 38.166 746.94 38.721 746.564 39.707ZM446 41.43C446 41.705 446.9 42.411 448 43C449.1 43.589 450 43.845 450 43.57C450 43.295 449.1 42.589 448 42C446.9 41.411 446 41.155 446 41.43ZM167.507 42.989C167.157 43.555 167.558 43.723 168.448 43.382C170.18 42.717 170.497 42 169.059 42C168.541 42 167.843 42.445 167.507 42.989ZM162.441 45.555C160.577 47.049 160.589 47.067 162.75 46.02C163.988 45.42 165 44.72 165 44.465C165 43.7 164.481 43.921 162.441 45.555ZM743.564 46.707C743.022 48.132 743.136 48.247 744.124 47.267C744.808 46.588 745.115 45.781 744.807 45.474C744.499 45.166 743.94 45.721 743.564 46.707ZM156.441 48.555C154.577 50.049 154.589 50.067 156.75 49.02C157.988 48.42 159 47.72 159 47.465C159 46.7 158.481 46.921 156.441 48.555ZM455.733 48.124C456.412 48.808 457.219 49.115 457.526 48.807C457.834 48.499 457.279 47.94 456.293 47.564C454.868 47.022 454.753 47.136 455.733 48.124ZM741.144 51.75C740.053 54.3 740.078 54.359 741.484 52.559C742.318 51.491 743 50.254 743 49.809C743 48.289 742.322 48.999 741.144 51.75ZM151.441 51.555C149.577 53.049 149.589 53.067 151.75 52.02C152.988 51.42 154 50.72 154 50.465C154 49.7 153.481 49.921 151.441 51.555ZM656.924 52.75L654.5 55.5L657.25 53.076C658.763 51.742 660 50.505 660 50.326C660 49.541 659.19 50.18 656.924 52.75ZM738 57C737.411 58.1 737.155 59 737.43 59C737.705 59 738.411 58.1 739 57C739.589 55.9 739.845 55 739.57 55C739.295 55 738.589 55.9 738 57ZM468 58.5C469.292 59.875 470.574 61 470.849 61C471.124 61 470.292 59.875 469 58.5C467.708 57.125 466.426 56 466.151 56C465.876 56 466.708 57.125 468 58.5ZM646 63.5C641.903 67.625 638.775 71 639.05 71C639.325 71 642.903 67.625 647 63.5C651.097 59.375 654.225 56 653.95 56C653.675 56 650.097 59.375 646 63.5ZM136.441 60.555C134.577 62.049 134.589 62.067 136.75 61.02C137.988 60.42 139 59.72 139 59.465C139 58.7 138.481 58.921 136.441 60.555ZM128 66.089C125.846 67.851 125.804 67.986 127.694 67.062C128.901 66.472 130.165 65.542 130.503 64.995C131.406 63.534 130.8 63.799 128 66.089ZM732.564 66.707C732.022 68.132 732.136 68.247 733.124 67.267C733.808 66.588 734.115 65.781 733.807 65.474C733.499 65.166 732.94 65.721 732.564 66.707ZM478 71C478.589 72.1 479.295 73 479.57 73C479.845 73 479.589 72.1 479 71C478.411 69.9 477.705 69 477.43 69C477.155 69 477.411 69.9 478 71ZM118.872 72.75C117.629 74.336 117.664 74.371 119.25 73.128C120.916 71.821 121.445 71 120.622 71C120.415 71 119.627 71.788 118.872 72.75ZM114.872 75.75C113.629 77.336 113.664 77.371 115.25 76.128C116.916 74.821 117.445 74 116.622 74C116.415 74 115.627 74.788 114.872 75.75ZM268.25 74.716C269.762 74.945 272.238 74.945 273.75 74.716C275.262 74.487 274.025 74.3 271 74.3C267.975 74.3 266.738 74.487 268.25 74.716ZM480.564 75.293C480.94 76.279 481.499 76.834 481.807 76.526C482.115 76.219 481.808 75.412 481.124 74.733C480.136 73.753 480.022 73.868 480.564 75.293ZM603.994 104.75L573.5 135.5L604.25 105.006C621.163 88.235 635 74.397 635 74.256C635 73.55 632.333 76.173 603.994 104.75ZM258.14 76.147C256.293 76.679 254.968 77.301 255.197 77.53C255.702 78.035 263 76.092 263 75.453C263 74.864 262.206 74.977 258.14 76.147ZM280.567 75.888C281.629 76.86 287.823 78.49 286.884 77.55C286.547 77.214 284.778 76.51 282.953 75.987C281.128 75.463 280.055 75.419 280.567 75.888ZM251.441 79.555C249.577 81.049 249.589 81.067 251.75 80.02C252.988 79.42 254 78.72 254 78.465C254 77.7 253.481 77.921 251.441 79.555ZM288 78.43C288 78.705 288.9 79.411 290 80C291.1 80.589 292 80.845 292 80.57C292 80.295 291.1 79.589 290 79C288.9 78.411 288 78.155 288 78.43ZM246.872 82.75C245.629 84.336 245.664 84.371 247.25 83.128C248.916 81.821 249.445 81 248.622 81C248.415 81 247.627 81.788 246.872 82.75ZM293 81.378C293 81.585 293.788 82.373 294.75 83.128C296.336 84.371 296.371 84.336 295.128 82.75C293.821 81.084 293 80.555 293 81.378ZM483.731 83.08C484.085 84.432 484.538 84.886 484.788 84.137C485.028 83.415 484.75 82.35 484.168 81.768C483.426 81.026 483.296 81.417 483.731 83.08ZM102.924 85.75L100.5 88.5L103.25 86.076C104.762 84.742 106 83.505 106 83.326C106 82.541 105.19 83.18 102.924 85.75ZM239 91C237.825 92.65 237.232 93.997 237.682 93.994C238.132 93.99 239.267 92.64 240.203 90.994C242.396 87.141 241.745 87.145 239 91ZM300 88.378C300 88.585 300.788 89.373 301.75 90.128C303.336 91.371 303.371 91.336 302.128 89.75C300.821 88.084 300 87.555 300 88.378ZM88.481 99.25L78.5 109.5L88.75 99.519C94.387 94.029 99 89.417 99 89.269C99 88.545 97.752 89.73 88.481 99.25ZM486.195 94.5C486.215 96.15 486.439 96.704 486.693 95.731C486.947 94.758 486.93 93.408 486.656 92.731C486.382 92.054 486.175 92.85 486.195 94.5ZM714.1 96.295C712.835 98.402 712.857 98.423 714.579 96.774C715.57 95.824 716.166 94.832 715.903 94.569C715.64 94.306 714.829 95.083 714.1 96.295ZM235.168 97.949C234.583 99.627 234.317 101 234.577 101C235.252 101 237.139 95.805 236.644 95.31C236.417 95.083 235.753 96.271 235.168 97.949ZM486.195 102.5C486.215 104.15 486.439 104.704 486.693 103.731C486.947 102.758 486.93 101.408 486.656 100.731C486.382 100.054 486.175 100.85 486.195 102.5ZM232.31 112.5C232.315 115.8 232.502 117.029 232.725 115.232C232.947 113.435 232.943 110.735 232.715 109.232C232.486 107.729 232.304 109.2 232.31 112.5ZM309.31 112.5C309.315 115.8 309.502 117.029 309.725 115.232C309.947 113.435 309.943 110.735 309.715 109.232C309.486 107.729 309.304 109.2 309.31 112.5ZM705.872 108.75C704.629 110.336 704.664 110.371 706.25 109.128C707.916 107.821 708.445 107 707.622 107C707.415 107 706.627 107.788 705.872 108.75ZM72.437 116.25L69.5 119.5L72.75 116.563C75.779 113.825 76.46 113 75.687 113C75.515 113 74.052 114.462 72.437 116.25ZM483.564 114.707C483.022 116.132 483.136 116.247 484.124 115.267C484.808 114.588 485.115 113.781 484.807 113.474C484.499 113.166 483.94 113.721 483.564 114.707ZM701.872 114.75C700.629 116.336 700.664 116.371 702.25 115.128C703.916 113.821 704.445 113 703.622 113C703.415 113 702.627 113.788 701.872 114.75ZM481 120C480.411 121.1 480.155 122 480.43 122C480.705 122 481.411 121.1 482 120C482.589 118.9 482.845 118 482.57 118C482.295 118 481.589 118.9 481 120ZM233.079 120.583C233.127 121.748 233.364 121.985 233.683 121.188C233.972 120.466 233.936 119.603 233.604 119.271C233.272 118.939 233.036 119.529 233.079 120.583ZM67.872 121.75C66.629 123.336 66.664 123.371 68.25 122.128C69.213 121.373 70 120.585 70 120.378C70 119.555 69.179 120.084 67.872 121.75ZM307.624 123.539C306.659 126.053 306.943 126.702 308.122 124.675C308.706 123.671 308.973 122.639 308.715 122.382C308.458 122.124 307.966 122.645 307.624 123.539ZM478.1 125.295C476.835 127.402 476.857 127.423 478.579 125.774C479.57 124.824 480.166 123.832 479.903 123.569C479.64 123.306 478.829 124.083 478.1 125.295ZM693.511 126.623C692.566 128.066 692.287 128.941 692.891 128.567C694.045 127.854 696.374 124 695.65 124C695.419 124 694.457 125.18 693.511 126.623ZM62 129C60.258 131.2 59.057 133 59.332 133C59.607 133 61.258 131.2 63 129C64.742 126.8 65.943 125 65.668 125C65.393 125 63.742 126.8 62 129ZM234.714 127.014C235.004 128.124 235.595 129.25 236.027 129.517C236.46 129.784 236.576 129.095 236.286 127.986C235.996 126.876 235.405 125.75 234.973 125.483C234.54 125.216 234.424 125.905 234.714 127.014ZM473.924 130.75L471.5 133.5L474.25 131.076C475.763 129.742 477 128.505 477 128.326C477 127.541 476.19 128.18 473.924 130.75ZM302.463 134.25C300.921 136.587 300.299 137.972 301.08 137.327C302.582 136.086 306.411 130 305.689 130C305.456 130 304.004 131.913 302.463 134.25ZM238 133C238.589 134.1 239.295 135 239.57 135C239.845 135 239.589 134.1 239 133C238.411 131.9 237.705 131 237.43 131C237.155 131 237.411 131.9 238 133ZM687.872 134.75C686.629 136.336 686.664 136.371 688.25 135.128C689.916 133.821 690.445 133 689.622 133C689.415 133 688.627 133.788 687.872 134.75ZM243 139.367C244.925 141.455 247.4 143.638 248.5 144.218C249.6 144.797 250.275 145.062 250 144.806C249.725 144.55 247.25 142.367 244.5 139.955C239.748 135.787 239.673 135.758 243 139.367ZM565 144.5C560.903 148.625 557.775 152 558.05 152C558.325 152 561.903 148.625 566 144.5C570.097 140.375 573.225 137 572.95 137C572.675 137 569.097 140.375 565 144.5ZM684.872 138.75C683.629 140.336 683.664 140.371 685.25 139.128C686.916 137.821 687.445 137 686.622 137C686.415 137 685.627 137.788 684.872 138.75ZM463.924 140.75L461.5 143.5L464.25 141.076C466.82 138.81 467.459 138 466.674 138C466.495 138 465.258 139.238 463.924 140.75ZM52.872 141.75C51.629 143.336 51.664 143.371 53.25 142.128C54.916 140.821 55.445 140 54.622 140C54.415 140 53.627 140.788 52.872 141.75ZM682.459 142.067C682.096 142.653 682.014 143.348 682.276 143.61C682.538 143.872 683.019 143.392 683.345 142.543C684.021 140.781 683.445 140.471 682.459 142.067ZM294 143C293.099 143.582 292.975 143.975 293.691 143.985C294.346 143.993 295.16 143.55 295.5 143C296.267 141.758 295.921 141.758 294 143ZM458.872 144.75C457.629 146.336 457.664 146.371 459.25 145.128C460.916 143.821 461.445 143 460.622 143C460.415 143 459.627 143.788 458.872 144.75ZM50 146C49.411 147.1 49.155 148 49.43 148C49.705 148 50.411 147.1 51 146C51.589 144.9 51.845 144 51.57 144C51.295 144 50.589 144.9 50 146ZM251 145.43C251 145.705 251.9 146.411 253 147C254.1 147.589 255 147.845 255 147.57C255 147.295 254.1 146.589 253 146C251.9 145.411 251 145.155 251 145.43ZM289.25 146.031C288.012 146.529 287 147.133 287 147.374C287 148.118 290.998 146.812 291.575 145.879C292.211 144.85 292.184 144.852 289.25 146.031ZM678.511 147.623C677.566 149.066 677.287 149.941 677.891 149.567C679.045 148.854 681.374 145 680.65 145C680.419 145 679.457 146.18 678.511 147.623ZM145.75 146.662C146.438 146.94 147.563 146.94 148.25 146.662C148.938 146.385 148.375 146.158 147 146.158C145.625 146.158 145.063 146.385 145.75 146.662ZM153.75 146.662C154.438 146.94 155.563 146.94 156.25 146.662C156.938 146.385 156.375 146.158 155 146.158C153.625 146.158 153.063 146.385 153.75 146.662ZM139 148.046C137.905 148.787 138.309 148.88 140.5 148.39C144.177 147.567 144.975 146.995 142.417 147.015C141.363 147.024 139.825 147.487 139 148.046ZM159.083 147.359C159.313 147.557 160.85 148.021 162.5 148.39C164.691 148.88 165.095 148.787 164 148.046C162.65 147.132 158.08 146.494 159.083 147.359ZM280.5 149.538C276.539 150.908 276.535 150.916 280 150.346C281.925 150.029 284.175 149.386 285 148.916C287.202 147.661 285.075 147.955 280.5 149.538ZM134 150C133.099 150.582 132.975 150.975 133.691 150.985C134.346 150.993 135.16 150.55 135.5 150C136.267 148.758 135.921 148.758 134 150ZM166.483 149.973C166.75 150.405 167.876 150.996 168.986 151.286C170.095 151.576 170.784 151.46 170.517 151.027C170.25 150.595 169.124 150.004 168.014 149.714C166.905 149.424 166.216 149.54 166.483 149.973ZM259.083 149.359C259.313 149.557 260.85 150.021 262.5 150.39C264.691 150.88 265.095 150.787 264 150.046C262.65 149.132 258.08 148.494 259.083 149.359ZM449.441 150.555C447.577 152.049 447.589 152.067 449.75 151.02C450.987 150.42 452 149.72 452 149.465C452 148.7 451.481 148.921 449.441 150.555ZM172 152.378C172 152.585 172.788 153.373 173.75 154.128C175.336 155.371 175.371 155.336 174.128 153.75C172.821 152.084 172 151.555 172 152.378ZM443 153.5C441.625 154.286 440.976 154.945 441.559 154.965C442.141 154.984 443.491 154.339 444.559 153.532C447.028 151.664 446.239 151.648 443 153.5ZM553.453 157.25L549.5 161.5L553.75 157.547C557.702 153.871 558.46 153 557.703 153C557.54 153 555.627 154.913 553.453 157.25ZM672.405 156.25L670.5 158.5L672.75 156.595C674.864 154.805 675.455 154 674.655 154C674.465 154 673.453 155.012 672.405 156.25ZM176 155.313C176 155.485 177.462 156.948 179.25 158.563L182.5 161.5L179.563 158.25C176.825 155.221 176 154.54 176 155.313ZM438 156C437.099 156.582 436.975 156.975 437.691 156.985C438.346 156.993 439.16 156.55 439.5 156C440.267 154.758 439.921 154.758 438 156ZM431 159C430.099 159.582 429.975 159.975 430.691 159.985C431.346 159.993 432.16 159.55 432.5 159C433.267 157.758 432.921 157.758 431 159ZM41 161C40.411 162.1 40.155 163 40.43 163C40.705 163 41.411 162.1 42 161C42.589 159.9 42.845 159 42.57 159C42.295 159 41.589 159.9 41 161ZM120.405 161.25L118.5 163.5L120.75 161.595C122.864 159.805 123.455 159 122.655 159C122.465 159 121.453 160.012 120.405 161.25ZM423.25 162.031C422.013 162.529 421 163.133 421 163.374C421 164.118 424.998 162.812 425.575 161.879C426.211 160.85 426.184 160.852 423.25 162.031ZM183 164C183.589 165.1 184.295 166 184.57 166C184.845 166 184.589 165.1 184 164C183.411 162.9 182.705 162 182.43 162C182.155 162 182.411 162.9 183 164ZM38.459 165.067C38.096 165.653 38.014 166.348 38.276 166.61C38.538 166.872 39.019 166.392 39.345 165.543C40.021 163.781 39.445 163.471 38.459 165.067ZM416 165.5C414.625 166.286 413.976 166.945 414.559 166.965C415.141 166.984 416.491 166.339 417.559 165.532C420.028 163.664 419.239 163.648 416 165.5ZM116.459 167.067C116.096 167.653 116.014 168.348 116.276 168.61C116.538 168.872 117.019 168.392 117.345 167.543C118.021 165.781 117.445 165.471 116.459 167.067ZM541 170.5C538.571 172.975 536.809 175 537.084 175C537.359 175 539.571 172.975 542 170.5C544.429 168.025 546.191 166 545.916 166C545.641 166 543.429 168.025 541 170.5ZM663.872 167.75C662.629 169.336 662.664 169.371 664.25 168.128C665.916 166.821 666.445 166 665.622 166C665.415 166 664.627 166.788 663.872 167.75ZM185.714 169.014C186.004 170.124 186.595 171.25 187.027 171.517C187.46 171.784 187.576 171.095 187.286 169.986C186.996 168.876 186.405 167.75 185.973 167.483C185.54 167.216 185.424 167.905 185.714 169.014ZM410.441 168.555C408.577 170.049 408.589 170.067 410.75 169.02C411.987 168.42 413 167.72 413 167.465C413 166.7 412.481 166.921 410.441 168.555ZM35 172C34.411 173.1 34.155 174 34.43 174C34.705 174 35.411 173.1 36 172C36.589 170.9 36.845 170 36.57 170C36.295 170 35.589 170.9 35 172ZM405.441 171.555C403.577 173.049 403.589 173.067 405.75 172.02C406.987 171.42 408 170.72 408 170.465C408 169.7 407.481 169.921 405.441 171.555ZM114.116 173.168C114.052 174.086 113.741 175.661 113.424 176.668C112.879 178.404 112.909 178.407 113.992 176.719C114.62 175.739 114.931 174.164 114.683 173.219C114.277 171.67 114.221 171.665 114.116 173.168ZM657.872 175.75C656.629 177.336 656.664 177.371 658.25 176.128C659.916 174.821 660.445 174 659.622 174C659.415 174 658.627 174.788 657.872 175.75ZM393.462 181.25L388.5 186.5L393.75 181.538C398.628 176.926 399.459 176 398.712 176C398.554 176 396.192 178.363 393.462 181.25ZM533.437 179.25L530.5 182.5L533.75 179.563C535.538 177.948 537 176.485 537 176.313C537 175.54 536.175 176.221 533.437 179.25ZM189.343 184.5C189.346 188.9 189.522 190.576 189.733 188.224C189.945 185.872 189.942 182.272 189.727 180.224C189.512 178.176 189.339 180.1 189.343 184.5ZM654.405 180.25L652.5 182.5L654.75 180.595C656.864 178.805 657.455 178 656.655 178C656.465 178 655.453 179.012 654.405 180.25ZM29.459 183.067C29.096 183.653 29.014 184.348 29.276 184.61C29.538 184.872 30.019 184.392 30.345 183.543C31.021 181.781 30.445 181.471 29.459 183.067ZM26.459 189.067C26.096 189.653 26.014 190.348 26.276 190.61C26.538 190.872 27.019 190.392 27.345 189.543C28.021 187.781 27.445 187.471 26.459 189.067ZM645.566 191.75C643.405 194.512 643.232 194.976 644.909 193.511C646.914 191.76 649.558 188 648.785 188C648.628 188 647.18 189.688 645.566 191.75ZM520.453 193.25L516.5 197.5L520.75 193.547C524.702 189.871 525.46 189 524.703 189C524.54 189 522.627 190.913 520.453 193.25ZM114.079 194.583C114.127 195.748 114.364 195.985 114.683 195.188C114.972 194.466 114.936 193.603 114.604 193.271C114.272 192.939 114.036 193.529 114.079 194.583ZM383.314 195.75C382.972 196.712 382.466 197.907 382.191 198.405C381.916 198.902 382.156 199.022 382.725 198.67C383.767 198.026 385.189 194 384.375 194C384.134 194 383.657 194.788 383.314 195.75ZM23.459 196.067C23.096 196.653 23.014 197.348 23.276 197.61C23.538 197.872 24.019 197.392 24.345 196.543C25.021 194.781 24.445 194.471 23.459 196.067ZM640.872 197.75C639.629 199.336 639.664 199.371 641.25 198.128C642.212 197.373 643 196.585 643 196.378C643 195.555 642.179 196.084 640.872 197.75ZM186.459 199.067C186.096 199.653 186.014 200.348 186.276 200.61C186.538 200.872 187.019 200.392 187.345 199.543C188.021 197.781 187.445 197.471 186.459 199.067ZM511 203.5C508.571 205.975 506.809 208 507.084 208C507.359 208 509.571 205.975 512 203.5C514.429 201.025 516.191 199 515.916 199C515.641 199 513.429 201.025 511 203.5ZM116.564 201.293C116.94 202.279 117.499 202.834 117.807 202.526C118.115 202.219 117.808 201.412 117.124 200.733C116.136 199.753 116.022 199.868 116.564 201.293ZM636.437 203.671C634.897 205.69 634.148 207.027 634.772 206.641C636.052 205.85 640.381 200 639.687 200C639.44 200 637.977 201.652 636.437 203.671ZM380.624 203.539C380.281 204.432 380.052 206.364 380.115 207.832C380.201 209.83 380.426 209.496 381.01 206.5C381.838 202.249 381.655 200.85 380.624 203.539ZM119.511 206.377C120.457 207.82 121.419 209 121.65 209C122.374 209 120.045 205.146 118.891 204.433C118.287 204.059 118.566 204.934 119.511 206.377ZM178 211.5C175.571 213.975 173.809 216 174.084 216C174.359 216 176.571 213.975 179 211.5C181.429 209.025 183.191 207 182.916 207C182.641 207 180.429 209.025 178 211.5ZM632.459 209.067C632.096 209.653 632.014 210.348 632.276 210.61C632.538 210.872 633.019 210.392 633.345 209.543C634.021 207.781 633.445 207.471 632.459 209.067ZM503.437 212.25L500.5 215.5L503.75 212.563C505.538 210.948 507 209.485 507 209.313C507 208.54 506.175 209.221 503.437 212.25ZM17.345 211.543C17.019 212.392 16.976 213.31 17.249 213.583C17.523 213.856 17.986 213.161 18.279 212.04C18.903 209.657 18.21 209.289 17.345 211.543ZM379.32 218C379.32 221.575 379.502 223.038 379.723 221.25C379.945 219.462 379.945 216.538 379.723 214.75C379.502 212.962 379.32 214.425 379.32 218ZM628.872 213.75C627.629 215.336 627.664 215.371 629.25 214.128C630.916 212.821 631.445 212 630.622 212C630.415 212 629.627 212.788 628.872 213.75ZM126.733 214.124C127.412 214.808 128.219 215.115 128.526 214.807C128.834 214.499 128.279 213.94 127.293 213.564C125.868 213.022 125.753 213.136 126.733 214.124ZM130 216.43C130 216.705 130.9 217.411 132 218C133.1 218.589 134 218.845 134 218.57C134 218.295 133.1 217.589 132 217C130.9 216.411 130 216.155 130 216.43ZM170.441 217.555C168.577 219.049 168.589 219.067 170.75 218.02C171.988 217.42 173 216.72 173 216.465C173 215.7 172.481 215.921 170.441 217.555ZM625.872 217.75C624.629 219.336 624.664 219.371 626.25 218.128C627.916 216.821 628.445 216 627.622 216C627.415 216 626.627 216.788 625.872 217.75ZM14.624 219.539C13.659 222.053 13.943 222.702 15.122 220.675C15.706 219.671 15.973 218.639 15.715 218.382C15.458 218.124 14.966 218.645 14.624 219.539ZM136.515 220.025C136.766 220.43 138.088 220.975 139.455 221.236C140.821 221.497 141.735 221.38 141.485 220.975C141.234 220.57 139.912 220.025 138.545 219.764C137.179 219.503 136.265 219.62 136.515 220.025ZM163.5 220.535C160.999 221.74 160.916 221.878 163 221.369C165.834 220.677 169.018 219.053 167.5 219.076C166.95 219.084 165.15 219.74 163.5 220.535ZM492.437 224.25L489.5 227.5L492.75 224.563C494.538 222.948 496 221.485 496 221.313C496 220.54 495.175 221.221 492.437 224.25ZM148.768 222.725C150.565 222.947 153.265 222.943 154.768 222.715C156.271 222.486 154.8 222.304 151.5 222.31C148.2 222.315 146.971 222.502 148.768 222.725ZM619.872 225.75C618.629 227.336 618.664 227.371 620.25 226.128C621.916 224.821 622.445 224 621.622 224C621.415 224 620.627 224.788 619.872 225.75ZM380.015 227.583C380.024 229.188 380.461 231.175 380.987 232C381.638 233.021 381.748 232.224 381.33 229.5C380.572 224.557 379.995 223.715 380.015 227.583ZM616.872 229.75C615.629 231.336 615.664 231.371 617.25 230.128C618.916 228.821 619.445 228 618.622 228C618.415 228 617.627 228.788 616.872 229.75ZM483.938 233.75C477.805 240.243 474.565 244 475.097 244C475.342 244 478.6 240.625 482.336 236.5C489.871 228.18 490.953 226.324 483.938 233.75ZM382.714 238.014C383.004 239.124 383.595 240.25 384.027 240.517C384.46 240.784 384.576 240.095 384.286 238.986C383.996 237.876 383.405 236.75 382.973 236.483C382.54 236.216 382.424 236.905 382.714 238.014ZM8.62398 239.539C8.28098 240.432 8.02899 241.689 8.06299 242.332C8.09799 242.974 8.558 242.422 9.085 241.105C9.612 239.787 9.86399 238.531 9.64499 238.312C9.42599 238.093 8.96598 238.645 8.62398 239.539ZM606.566 242.75C604.405 245.512 604.232 245.976 605.909 244.511C607.914 242.76 610.558 239 609.785 239C609.628 239 608.18 240.688 606.566 242.75ZM385.714 245.014C386.004 246.124 386.595 247.25 387.027 247.517C387.46 247.784 387.576 247.095 387.286 245.986C386.996 244.876 386.405 243.75 385.973 243.483C385.54 243.216 385.424 243.905 385.714 245.014ZM601.872 248.75C600.629 250.336 600.664 250.371 602.25 249.128C603.916 247.821 604.445 247 603.622 247C603.415 247 602.627 247.788 601.872 248.75ZM6.07898 251.583C6.12698 252.748 6.36399 252.985 6.68299 252.188C6.97199 251.466 6.93599 250.603 6.60399 250.271C6.27199 249.939 6.03598 250.529 6.07898 251.583ZM389 252C389.589 253.1 390.295 254 390.57 254C390.845 254 390.589 253.1 390 252C389.411 250.9 388.705 250 388.43 250C388.155 250 388.411 250.9 389 252ZM467.872 251.75C466.629 253.336 466.664 253.371 468.25 252.128C469.916 250.821 470.445 250 469.622 250C469.415 250 468.627 250.788 467.872 251.75ZM598.405 253.25L596.5 255.5L598.75 253.595C600.864 251.805 601.455 251 600.655 251C600.465 251 599.453 252.012 598.405 253.25ZM5.07898 255.583C5.12698 256.748 5.36399 256.985 5.68299 256.188C5.97199 255.466 5.93599 254.603 5.60399 254.271C5.27199 253.939 5.03598 254.529 5.07898 255.583ZM392 258C392.589 259.1 393.295 260 393.57 260C393.845 260 393.589 259.1 393 258C392.411 256.9 391.705 256 391.43 256C391.155 256 391.411 256.9 392 258ZM470.085 256.75C470.131 257.163 472.044 259.054 474.335 260.954L478.5 264.408L474.547 260.204C470.482 255.88 469.939 255.46 470.085 256.75ZM593.924 258.75L591.5 261.5L594.25 259.076C595.763 257.742 597 256.505 597 256.326C597 255.541 596.19 256.18 593.924 258.75ZM394.564 262.293C394.94 263.279 395.499 263.834 395.807 263.526C396.115 263.219 395.808 262.412 395.124 261.733C394.136 260.753 394.022 260.868 394.564 262.293ZM589.872 263.75C588.629 265.336 588.664 265.371 590.25 264.128C591.916 262.821 592.445 262 591.622 262C591.415 262 590.627 262.788 589.872 263.75ZM480 265.378C480 265.585 480.788 266.373 481.75 267.128C483.336 268.371 483.371 268.336 482.128 266.75C480.821 265.084 480 264.555 480 265.378ZM3.15799 268C3.15799 269.375 3.38499 269.938 3.66199 269.25C3.93999 268.563 3.93999 267.438 3.66199 266.75C3.38499 266.063 3.15799 266.625 3.15799 268ZM397.564 268.293C397.94 269.279 398.499 269.834 398.807 269.526C399.115 269.219 398.808 268.412 398.124 267.733C397.136 266.753 397.022 266.868 397.564 268.293ZM486 270.378C486 270.585 486.788 271.373 487.75 272.128C489.336 273.371 489.371 273.336 488.128 271.75C486.821 270.084 486 269.555 486 270.378ZM2.195 273.5C2.215 275.15 2.43898 275.704 2.69298 274.731C2.94698 273.758 2.93 272.408 2.656 271.731C2.382 271.054 2.175 271.85 2.195 273.5ZM580.437 275.25L577.5 278.5L580.75 275.563C582.538 273.948 584 272.485 584 272.313C584 271.54 583.175 272.221 580.437 275.25ZM400.5 276C400.5 277.545 400.837 278.6 401.25 278.345C401.663 278.091 402 277.035 402 276C402 274.965 401.663 273.909 401.25 273.655C400.837 273.4 400.5 274.455 400.5 276ZM493 276.5C494.292 277.875 495.574 279 495.849 279C496.124 279 495.292 277.875 494 276.5C492.708 275.125 491.426 274 491.151 274C490.876 274 491.708 275.125 493 276.5ZM93.5 278C92.239 278.542 92.055 278.859 93 278.859C93.825 278.859 95.4 278.473 96.5 278C97.761 277.458 97.945 277.141 97 277.141C96.175 277.141 94.6 277.527 93.5 278ZM113 278C113.825 278.533 115.175 278.945 116 278.914C116.989 278.878 116.819 278.567 115.5 278C112.751 276.819 111.172 276.819 113 278ZM119.733 280.124C120.412 280.808 121.219 281.115 121.526 280.807C121.834 280.499 121.279 279.94 120.293 279.564C118.868 279.022 118.753 279.136 119.733 280.124ZM497 279.378C497 279.585 497.788 280.373 498.75 281.128C500.336 282.371 500.371 282.336 499.128 280.75C497.821 279.084 497 278.555 497 279.378ZM86.507 280.989C86.157 281.555 86.558 281.723 87.448 281.382C89.18 280.717 89.497 280 88.059 280C87.541 280 86.843 280.445 86.507 280.989ZM397.564 283.707C397.022 285.132 397.136 285.247 398.124 284.267C398.808 283.588 399.115 282.781 398.807 282.474C398.499 282.166 397.94 282.721 397.564 283.707ZM1.15799 285C1.15799 286.375 1.38499 286.938 1.66199 286.25C1.93999 285.563 1.93999 284.438 1.66199 283.75C1.38499 283.063 1.15799 283.625 1.15799 285ZM501.083 283.25C501.313 283.387 502.85 284.625 504.5 286L507.5 288.5L505.076 285.75C503.742 284.238 502.205 283 501.659 283C501.113 283 500.854 283.113 501.083 283.25ZM79.405 286.25L77.5 288.5L79.75 286.595C80.988 285.547 82 284.535 82 284.345C82 283.545 81.195 284.136 79.405 286.25ZM132.465 289C135.159 292.025 137.568 294.725 137.817 295C138.067 295.275 137.796 294.6 137.215 293.5C136.634 292.4 134.225 289.7 131.863 287.5C127.628 283.557 127.636 283.578 132.465 289ZM443.722 287.05C444.944 288.337 446.138 289.189 446.374 288.944C446.611 288.7 445.611 287.648 444.152 286.606L441.5 284.712L443.722 287.05ZM567.065 291.25C564.625 294.138 563.882 295.375 565.412 294C567.991 291.684 572.543 285.999 571.818 286C571.643 286.001 569.504 288.363 567.065 291.25ZM440 289C439.411 290.1 439.155 291 439.43 291C439.705 291 440.411 290.1 441 289C441.589 287.9 441.845 287 441.57 287C441.295 287 440.589 287.9 440 289ZM508.904 289.315C510.455 291.261 518 297.419 518 296.741C518 296.505 515.638 294.343 512.75 291.934C509.862 289.526 508.132 288.347 508.904 289.315ZM74.872 290.75C73.629 292.336 73.664 292.371 75.25 291.128C76.213 290.373 77 289.585 77 289.378C77 288.555 76.179 289.084 74.872 290.75ZM392 294C391.411 295.1 391.155 296 391.43 296C391.705 296 392.411 295.1 393 294C393.589 292.9 393.845 292 393.57 292C393.295 292 392.589 292.9 392 294ZM437.459 293.067C437.096 293.653 437.014 294.348 437.276 294.61C437.538 294.872 438.019 294.392 438.345 293.543C439.021 291.781 438.445 291.471 437.459 293.067ZM0.416997 311.5C0.417997 321.95 0.565992 326.089 0.745992 320.698C0.925992 315.307 0.924993 306.757 0.743993 301.698C0.562993 296.639 0.415997 301.05 0.416997 311.5ZM72 295C71.411 296.1 71.155 297 71.43 297C71.705 297 72.411 296.1 73 295C73.589 293.9 73.845 293 73.57 293C73.295 293 72.589 293.9 72 295ZM452.31 293.693C453.151 295.053 461 301.386 461 300.704C461 300.45 458.883 298.507 456.297 296.387C453.71 294.267 451.916 293.055 452.31 293.693ZM138.564 297.293C138.94 298.279 139.499 298.834 139.807 298.526C140.115 298.219 139.808 297.412 139.124 296.733C138.136 295.753 138.022 295.868 138.564 297.293ZM435 298C434.411 299.1 434.155 300 434.43 300C434.705 300 435.411 299.1 436 298C436.589 296.9 436.845 296 436.57 296C436.295 296 435.589 296.9 435 298ZM519 297.378C519 297.585 519.788 298.373 520.75 299.128C522.336 300.371 522.371 300.336 521.128 298.75C519.821 297.084 519 296.555 519 297.378ZM69.624 299.539C68.659 302.053 68.943 302.702 70.122 300.675C70.706 299.671 70.973 298.639 70.715 298.382C70.458 298.124 69.966 298.645 69.624 299.539ZM559.872 299.75C558.629 301.336 558.664 301.371 560.25 300.128C561.916 298.821 562.445 298 561.622 298C561.415 298 560.627 298.788 559.872 299.75ZM388.564 300.707C388.022 302.132 388.136 302.247 389.124 301.267C389.808 300.588 390.115 299.781 389.807 299.474C389.499 299.166 388.94 299.721 388.564 300.707ZM432 303C431.411 304.1 431.155 305 431.43 305C431.705 305 432.411 304.1 433 303C433.589 301.9 433.845 301 433.57 301C433.295 301 432.589 301.9 432 303ZM523.083 301.25C523.313 301.388 524.85 302.625 526.5 304L529.5 306.5L527.076 303.75C525.742 302.237 524.205 301 523.659 301C523.113 301 522.854 301.112 523.083 301.25ZM463 302.378C463 302.585 463.788 303.373 464.75 304.128C466.336 305.371 466.371 305.336 465.128 303.75C463.821 302.084 463 301.555 463 302.378ZM386.314 304.75C385.972 305.712 385.466 306.907 385.191 307.405C384.916 307.902 385.156 308.022 385.725 307.67C386.767 307.026 388.189 303 387.375 303C387.134 303 386.657 303.788 386.314 304.75ZM554.405 306.25L552.5 308.5L554.75 306.595C556.864 304.805 557.455 304 556.655 304C556.465 304 555.453 305.013 554.405 306.25ZM67.195 308.5C67.215 310.15 67.439 310.704 67.693 309.731C67.947 308.758 67.93 307.408 67.656 306.731C67.382 306.054 67.175 306.85 67.195 308.5ZM142.31 311.5C142.315 314.8 142.502 316.029 142.725 314.232C142.947 312.435 142.943 309.735 142.715 308.232C142.486 306.729 142.304 308.2 142.31 311.5ZM530 306.378C530 306.585 530.788 307.373 531.75 308.128C533.336 309.371 533.371 309.336 532.128 307.75C530.821 306.084 530 305.555 530 306.378ZM469 307.378C469 307.585 469.788 308.373 470.75 309.128C472.336 310.371 472.371 310.336 471.128 308.75C469.821 307.084 469 306.555 469 307.378ZM428.459 309.067C428.096 309.653 428.014 310.348 428.276 310.61C428.538 310.872 429.019 310.392 429.345 309.543C430.021 307.781 429.445 307.471 428.459 309.067ZM383.459 310.067C383.096 310.653 383.014 311.348 383.276 311.61C383.538 311.872 384.019 311.392 384.345 310.543C385.021 308.781 384.445 308.471 383.459 310.067ZM548.619 313C544.475 317.587 543.97 317.729 541.5 315C540.505 313.9 539.275 313 538.768 313C538.261 313 539.229 314.163 540.919 315.585C542.608 317.007 544.358 318.019 544.806 317.835C545.856 317.404 553.396 309 552.733 309C552.458 309 550.607 310.8 548.619 313ZM473 310.378C473 310.585 473.788 311.373 474.75 312.128C476.336 313.371 476.371 313.336 475.128 311.75C473.821 310.084 473 309.555 473 310.378ZM534 310.393C534 310.609 534.698 311.054 535.552 311.382C536.442 311.723 536.843 311.555 536.493 310.989C535.906 310.038 534 309.583 534 310.393ZM66.232 315C66.232 316.925 66.438 317.712 66.689 316.75C66.941 315.788 66.941 314.212 66.689 313.25C66.438 312.288 66.232 313.075 66.232 315ZM426 314C425.411 315.1 425.155 316 425.43 316C425.705 316 426.411 315.1 427 314C427.589 312.9 427.845 312 427.57 312C427.295 312 426.589 312.9 426 314ZM478 314.378C478 314.585 478.788 315.373 479.75 316.128C481.336 317.371 481.371 317.336 480.128 315.75C478.821 314.084 478 313.555 478 314.378ZM380 317C379.411 318.1 379.155 319 379.43 319C379.705 319 380.411 318.1 381 317C381.589 315.9 381.845 315 381.57 315C381.295 315 380.589 315.9 380 317ZM422.954 319.086C422.34 320.233 422.026 321.36 422.257 321.59C422.487 321.82 423.189 320.882 423.816 319.504C425.194 316.48 424.523 316.154 422.954 319.086ZM67.195 321.5C67.215 323.15 67.439 323.704 67.693 322.731C67.947 321.758 67.93 320.408 67.656 319.731C67.382 319.054 67.175 319.85 67.195 321.5ZM142.195 321.5C142.215 323.15 142.439 323.704 142.693 322.731C142.947 321.758 142.93 320.408 142.656 319.731C142.382 319.054 142.175 319.85 142.195 321.5ZM484 319.378C484 319.585 484.788 320.373 485.75 321.128C487.336 322.371 487.371 322.336 486.128 320.75C484.821 319.084 484 318.555 484 319.378ZM377.144 322.75C376.053 325.3 376.078 325.359 377.484 323.559C378.318 322.491 379 321.254 379 320.809C379 319.289 378.322 319.999 377.144 322.75ZM488 322.378C488 322.585 488.788 323.373 489.75 324.128C491.336 325.371 491.371 325.336 490.128 323.75C488.821 322.084 488 321.555 488 322.378ZM420 325C419.411 326.1 419.155 327 419.43 327C419.705 327 420.411 326.1 421 325C421.589 323.9 421.845 323 421.57 323C421.295 323 420.589 323.9 420 325ZM585.924 327.75L583.5 330.5L586.25 328.076C588.82 325.81 589.459 325 588.674 325C588.495 325 587.258 326.237 585.924 327.75ZM597 328.5C598.866 330.425 600.617 332 600.892 332C601.167 332 599.866 330.425 598 328.5C596.134 326.575 594.383 325 594.108 325C593.833 325 595.134 326.575 597 328.5ZM494.722 328.05C495.944 329.337 497.138 330.189 497.374 329.944C497.611 329.7 496.611 328.648 495.152 327.606L492.5 325.712L494.722 328.05ZM373.564 329.707C373.022 331.132 373.136 331.247 374.124 330.267C374.808 329.588 375.115 328.781 374.807 328.474C374.499 328.166 373.94 328.721 373.564 329.707ZM138.954 331.086C138.34 332.233 138.026 333.36 138.257 333.59C138.487 333.82 139.189 332.882 139.816 331.504C141.194 328.48 140.523 328.154 138.954 331.086ZM416.459 331.067C416.096 331.653 416.014 332.348 416.276 332.61C416.538 332.872 417.019 332.392 417.345 331.543C418.021 329.781 417.445 329.471 416.459 331.067ZM499 331.378C499 331.585 499.788 332.373 500.75 333.128C502.336 334.371 502.371 334.336 501.128 332.75C499.821 331.084 499 330.555 499 331.378ZM579.872 334.75C578.629 336.336 578.664 336.371 580.25 335.128C581.916 333.821 582.445 333 581.622 333C581.415 333 580.627 333.788 579.872 334.75ZM601 333.378C601 333.585 601.788 334.373 602.75 335.128C604.336 336.371 604.371 336.336 603.128 334.75C601.821 333.084 601 332.555 601 333.378ZM370.564 335.707C370.022 337.132 370.136 337.247 371.124 336.267C371.808 335.588 372.115 334.781 371.807 334.474C371.499 334.166 370.94 334.721 370.564 335.707ZM413.71 336C413.423 337.1 413.354 338 413.558 338C413.763 338 414.411 337.1 415 336C415.591 334.895 415.659 334 415.152 334C414.647 334 413.998 334.9 413.71 336ZM135.872 336.75C134.629 338.336 134.664 338.371 136.25 337.128C137.916 335.821 138.445 335 137.622 335C137.415 335 136.627 335.788 135.872 336.75ZM1.15799 338C1.15799 339.375 1.38499 339.938 1.66199 339.25C1.93999 338.563 1.93999 337.438 1.66199 336.75C1.38499 336.063 1.15799 336.625 1.15799 338ZM605.08 339C606.538 342.061 607 342.628 607 341.358C607 340.821 606.3 339.509 605.445 338.441C603.978 336.611 603.958 336.643 605.08 339ZM75.5 340C76.495 341.1 77.535 342 77.81 342C78.085 342 77.495 341.1 76.5 340C75.505 338.9 74.465 338 74.19 338C73.915 338 74.505 338.9 75.5 340ZM368.459 339.067C368.096 339.653 368.014 340.348 368.276 340.61C368.538 340.872 369.019 340.392 369.345 339.543C370.021 337.781 369.445 337.471 368.459 339.067ZM573.554 341.822L570.607 345.5L574.304 342.054C578.123 338.493 578.525 337.949 577.25 338.072C576.837 338.112 575.174 339.799 573.554 341.822ZM130.946 342.75L127.5 346.5L131.25 343.054C134.74 339.846 135.46 339 134.696 339C134.529 339 132.842 340.688 130.946 342.75ZM510.733 341.124C511.412 341.808 512.219 342.115 512.526 341.807C512.834 341.499 512.279 340.94 511.293 340.564C509.868 340.022 509.753 340.136 510.733 341.124ZM79 343.378C79 343.585 79.787 344.373 80.75 345.128C82.336 346.371 82.371 346.336 81.128 344.75C79.821 343.084 79 342.555 79 343.378ZM514 343.378C514 343.585 514.788 344.373 515.75 345.128C517.336 346.371 517.371 346.336 516.128 344.75C514.821 343.084 514 342.555 514 343.378ZM607.731 345.08C608.085 346.432 608.538 346.886 608.788 346.137C609.028 345.415 608.75 344.35 608.168 343.768C607.426 343.026 607.296 343.417 607.731 345.08ZM365.459 345.067C365.096 345.653 365.014 346.348 365.276 346.61C365.538 346.872 366.019 346.392 366.345 345.543C367.021 343.781 366.445 343.471 365.459 345.067ZM408 347C407.411 348.1 407.155 349 407.43 349C407.705 349 408.411 348.1 409 347C409.589 345.9 409.845 345 409.57 345C409.295 345 408.589 345.9 408 347ZM83 346.43C83 346.705 83.9 347.411 85 348C86.1 348.589 87 348.845 87 348.57C87 348.295 86.1 347.589 85 347C83.9 346.411 83 346.155 83 346.43ZM124.441 347.555C122.577 349.049 122.589 349.067 124.75 348.02C125.988 347.42 127 346.72 127 346.465C127 345.7 126.481 345.921 124.441 347.555ZM566.453 350.25L562.5 354.5L566.75 350.547C569.087 348.373 571 346.46 571 346.297C571 345.54 570.129 346.298 566.453 350.25ZM2.195 349.5C2.215 351.15 2.43898 351.704 2.69298 350.731C2.94698 349.758 2.93 348.408 2.656 347.731C2.382 347.054 2.175 347.85 2.195 349.5ZM90 350.383C90 350.594 90.901 351.002 92.001 351.29C93.102 351.578 93.751 351.405 93.442 350.907C92.904 350.036 90 349.594 90 350.383ZM117 351C116.175 351.533 115.95 351.969 116.5 351.969C117.05 351.969 118.175 351.533 119 351C119.825 350.467 120.05 350.031 119.5 350.031C118.95 350.031 117.825 350.467 117 351ZM362.459 351.067C362.096 351.653 362.014 352.348 362.276 352.61C362.538 352.872 363.019 352.392 363.345 351.543C364.021 349.781 363.445 349.471 362.459 351.067ZM404.954 352.086C404.34 353.233 404.026 354.36 404.257 354.59C404.487 354.82 405.189 353.882 405.816 352.504C407.194 349.48 406.523 349.154 404.954 352.086ZM97.813 352.683C98.534 352.972 99.397 352.936 99.729 352.604C100.061 352.272 99.471 352.036 98.417 352.079C97.252 352.127 97.015 352.364 97.813 352.683ZM111.813 352.683C112.534 352.972 113.397 352.936 113.729 352.604C114.061 352.272 113.471 352.036 112.417 352.079C111.252 352.127 111.015 352.364 111.813 352.683ZM3.195 355.5C3.215 357.15 3.43898 357.704 3.69298 356.731C3.94698 355.758 3.93 354.408 3.656 353.731C3.382 353.054 3.175 353.85 3.195 355.5ZM103.264 353.718C104.784 353.947 107.034 353.941 108.264 353.704C109.494 353.467 108.25 353.279 105.5 353.286C102.75 353.294 101.744 353.488 103.264 353.718ZM506.966 359.75L501.5 365.5L507.25 360.034C512.592 354.956 513.458 354 512.716 354C512.56 354 509.972 356.587 506.966 359.75ZM611.158 356C611.158 357.375 611.385 357.938 611.662 357.25C611.94 356.563 611.94 355.438 611.662 354.75C611.385 354.063 611.158 354.625 611.158 356ZM359 358C358.411 359.1 358.155 360 358.43 360C358.705 360 359.411 359.1 360 358C360.589 356.9 360.845 356 360.57 356C360.295 356 359.589 356.9 359 358ZM402 358C401.411 359.1 401.155 360 401.43 360C401.705 360 402.411 359.1 403 358C403.589 356.9 403.845 356 403.57 356C403.295 356 402.589 356.9 402 358ZM557.437 360.25L554.5 363.5L557.75 360.563C559.538 358.948 561 357.485 561 357.313C561 356.54 560.175 357.221 557.437 360.25ZM612.079 361.583C612.127 362.748 612.364 362.985 612.683 362.188C612.972 361.466 612.936 360.603 612.604 360.271C612.272 359.939 612.036 360.529 612.079 361.583ZM399.459 362.067C399.096 362.653 399.014 363.348 399.276 363.61C399.538 363.872 400.019 363.392 400.345 362.543C401.021 360.781 400.445 360.471 399.459 362.067ZM356.459 363.067C356.096 363.653 356.014 364.348 356.276 364.61C356.538 364.872 357.019 364.392 357.345 363.543C358.021 361.781 357.445 361.471 356.459 363.067ZM5.16999 367.5C5.15399 368.6 5.52699 370.4 5.99999 371.5C7.09499 374.048 7.09499 371.419 5.99999 368C5.35599 365.99 5.19399 365.892 5.16999 367.5ZM396 369C395.411 370.1 395.155 371 395.43 371C395.705 371 396.411 370.1 397 369C397.589 367.9 397.845 367 397.57 367C397.295 367 396.589 367.9 396 369ZM529.276 388.854C517.603 400.696 508.174 410.507 508.322 410.655C508.47 410.804 518.467 401.042 530.537 388.963C542.607 376.883 552.037 367.073 551.491 367.162C550.946 367.25 540.949 377.012 529.276 388.854ZM350.564 374.707C350.022 376.132 350.136 376.247 351.124 375.267C351.808 374.588 352.115 373.781 351.807 373.474C351.499 373.166 350.94 373.721 350.564 374.707ZM392.71 375C392.423 376.1 392.354 377 392.558 377C392.763 377 393.411 376.1 394 375C394.591 373.895 394.659 373 394.152 373C393.647 373 392.998 373.9 392.71 375ZM347.564 380.707C347.022 382.132 347.136 382.247 348.124 381.267C348.808 380.588 349.115 379.781 348.807 379.474C348.499 379.166 347.94 379.721 347.564 380.707ZM480.938 384.77L476.5 389.498L480.985 385.499C483.451 383.3 485.664 381.388 485.901 381.25C486.139 381.112 486.118 380.784 485.854 380.521C485.591 380.257 483.378 382.17 480.938 384.77ZM345.3 385.389C344.86 386.152 343.6 387 342.5 387.273C340.662 387.728 340.679 387.777 342.715 387.884C343.992 387.951 345.383 387.153 346 386C347.195 383.766 346.556 383.208 345.3 385.389ZM387.459 385.067C387.096 385.653 387.014 386.348 387.276 386.61C387.538 386.872 388.019 386.392 388.345 385.543C389.021 383.781 388.445 383.471 387.459 385.067ZM612.158 390C612.158 391.375 612.385 391.938 612.662 391.25C612.94 390.563 612.94 389.438 612.662 388.75C612.385 388.063 612.158 388.625 612.158 390ZM331.25 390.119C329.462 390.635 328 391.278 328 391.548C328 392.273 333.345 390.883 334.45 389.871C335.539 388.873 335.576 388.87 331.25 390.119ZM324 393C323.099 393.582 322.975 393.975 323.691 393.985C324.346 393.993 325.16 393.55 325.5 393C326.267 391.758 325.921 391.758 324 393ZM390.483 392.973C390.75 393.405 391.876 393.996 392.986 394.286C394.095 394.576 394.784 394.46 394.517 394.027C394.25 393.595 393.124 393.004 392.014 392.714C390.905 392.424 390.216 392.54 390.483 392.973ZM466.966 397.75L461.5 403.5L467.25 398.034C472.592 392.956 473.458 392 472.716 392C472.56 392 469.972 394.587 466.966 397.75ZM611.15 396.168C611.067 397.636 610.741 399.661 610.424 400.668C609.881 402.4 609.911 402.403 610.988 400.724C611.615 399.748 611.942 397.723 611.714 396.224L611.3 393.5L611.15 396.168ZM317.441 396.555C315.577 398.049 315.589 398.067 317.75 397.02C318.988 396.42 320 395.72 320 395.465C320 394.7 319.481 394.921 317.441 396.555ZM397 395.43C397 395.705 397.9 396.411 399 397C400.1 397.589 401 397.845 401 397.57C401 397.295 400.1 396.589 399 396C397.9 395.411 397 395.155 397 395.43ZM312.441 399.555C310.577 401.049 310.589 401.067 312.75 400.02C313.988 399.42 315 398.72 315 398.465C315 397.7 314.481 397.921 312.441 399.555ZM402 398.43C402 398.705 402.9 399.411 404 400C405.1 400.589 406 400.845 406 400.57C406 400.295 405.1 399.589 404 399C402.9 398.411 402 398.155 402 398.43ZM14.086 402C14.055 402.825 14.467 404.175 15 405C16.181 406.828 16.181 405.249 15 402.5C14.433 401.181 14.122 401.011 14.086 402ZM307.872 402.75C306.629 404.336 306.664 404.371 308.25 403.128C309.916 401.821 310.445 401 309.622 401C309.415 401 308.627 401.788 307.872 402.75ZM144.446 403.479C133.646 406.891 125.006 414.413 120.3 424.5C117.82 429.814 117.5 431.644 117.5 440.5C117.5 449.215 117.839 451.222 120.135 456.12C121.585 459.211 124.51 463.674 126.635 466.038C130.451 470.282 138.398 476.009 140.446 475.991C141.026 475.985 139.229 474.678 136.453 473.086C130.035 469.405 125.096 463.935 121.407 456.421C118.785 451.08 118.5 449.518 118.5 440.479C118.5 431.175 118.735 429.981 121.781 423.794C127.879 411.406 138.703 404.42 154 402.999L161.5 402.302L155 402.25C151.425 402.221 146.676 402.774 144.446 403.479ZM168.361 405.771C177.845 409.713 185.026 416.28 189.111 424.748C192.079 430.9 192.37 432.344 192.384 441C192.399 449.747 192.142 451.015 189.138 457C185.227 464.79 181.214 469.2 174.5 473.087C171.75 474.679 169.974 475.985 170.554 475.991C172.544 476.008 180.502 470.334 184.1 466.331C186.081 464.128 188.982 459.665 190.548 456.413C193.06 451.197 193.397 449.379 193.406 441C193.416 432.364 193.128 430.902 190.241 424.926C185.232 414.556 174.348 405.351 165 403.581C162.716 403.149 163.884 403.91 168.361 405.771ZM458.405 405.25L456.5 407.5L458.75 405.595C459.987 404.547 461 403.535 461 403.345C461 402.545 460.195 403.136 458.405 405.25ZM303.872 405.75C302.629 407.336 302.664 407.371 304.25 406.128C305.916 404.821 306.445 404 305.622 404C305.415 404 304.627 404.788 303.872 405.75ZM412 405.161C412.825 405.988 416.2 409.091 419.5 412.058C423.426 415.587 424.29 416.133 422 413.637C420.075 411.54 416.7 408.436 414.5 406.74C412.3 405.044 411.175 404.334 412 405.161ZM608.079 409.668C608.036 410.311 607.741 411.661 607.424 412.668C606.877 414.409 606.906 414.412 607.995 412.712C608.626 411.729 608.92 410.379 608.65 409.712C608.295 408.837 608.136 408.825 608.079 409.668ZM17.031 410.5C17.031 411.05 17.467 412.175 18 413C18.533 413.825 18.969 414.05 18.969 413.5C18.969 412.95 18.533 411.825 18 411C17.467 410.175 17.031 409.95 17.031 410.5ZM446.924 415.67L444.5 418.339L447.219 416.42C448.714 415.364 449.951 414.163 449.969 413.75C450.02 412.519 449.472 412.864 446.924 415.67ZM497.437 420.25L494.5 423.5L497.75 420.563C499.538 418.948 501 417.485 501 417.313C501 416.54 500.175 417.221 497.437 420.25ZM20 418.941C20 419.459 20.445 420.157 20.989 420.493C21.555 420.843 21.723 420.442 21.382 419.552C20.717 417.82 20 417.503 20 418.941ZM427 420.5C428.292 421.875 429.574 423 429.849 423C430.124 423 429.292 421.875 428 420.5C426.708 419.125 425.426 418 425.151 418C424.876 418 425.708 419.125 427 420.5ZM605.079 418.668C605.036 419.311 604.741 420.661 604.424 421.668C603.877 423.409 603.906 423.412 604.995 421.712C605.626 420.729 605.92 419.379 605.65 418.712C605.295 417.837 605.136 417.825 605.079 418.668ZM437.453 424.25L433.5 428.5L437.75 424.547C441.702 420.871 442.46 420 441.703 420C441.54 420 439.627 421.913 437.453 424.25ZM285.405 425.25L283.5 427.5L285.75 425.595C287.864 423.805 288.455 423 287.655 423C287.465 423 286.453 424.013 285.405 425.25ZM351.787 424.82C350.845 425.194 353.615 425.5 357.942 425.5C362.269 425.5 365.289 425.169 364.655 424.765C363.227 423.857 354.117 423.896 351.787 424.82ZM23 425.941C23 426.459 23.445 427.157 23.989 427.493C24.555 427.843 24.723 427.442 24.382 426.552C23.717 424.82 23 424.503 23 425.941ZM370.116 426.45C370.453 426.786 372.222 427.49 374.047 428.013C375.872 428.537 376.945 428.581 376.433 428.112C375.371 427.14 369.177 425.51 370.116 426.45ZM340.558 427.907C340.249 428.405 340.898 428.578 341.999 428.29C344.334 427.679 344.629 427 342.559 427C341.766 427 340.866 427.408 340.558 427.907ZM601.564 428.707C601.022 430.132 601.136 430.247 602.124 429.267C602.808 428.588 603.115 427.781 602.807 427.474C602.499 427.166 601.94 427.721 601.564 428.707ZM282.5 429C282.16 429.55 282.359 430 282.941 430C283.523 430 284 429.55 284 429C284 428.45 283.802 428 283.559 428C283.316 428 282.84 428.45 282.5 429ZM335.441 430.555C333.577 432.049 333.589 432.067 335.75 431.02C336.988 430.42 338 429.72 338 429.465C338 428.7 337.481 428.921 335.441 430.555ZM378.083 429.365C378.313 429.565 379.625 430.265 381 430.92C383.357 432.042 383.389 432.022 381.559 430.555C379.966 429.279 376.711 428.164 378.083 429.365ZM484.437 432.25L481.5 435.5L484.75 432.563C486.538 430.948 488 429.485 488 429.313C488 428.54 487.175 429.221 484.437 432.25ZM26 432.941C26 433.459 26.445 434.157 26.989 434.493C27.555 434.843 27.723 434.442 27.382 433.552C26.717 431.82 26 431.503 26 432.941ZM384 432.35C384 432.581 385.18 433.543 386.623 434.489C388.066 435.434 388.941 435.713 388.567 435.109C387.854 433.955 384 431.626 384 432.35ZM598.564 435.707C598.022 437.132 598.136 437.247 599.124 436.267C599.808 435.588 600.115 434.781 599.807 434.474C599.499 434.166 598.94 434.721 598.564 435.707ZM322.462 440.25L317.5 445.5L322.75 440.538C325.637 437.808 328 435.446 328 435.288C328 434.541 327.074 435.372 322.462 440.25ZM474.462 441.25L469.5 446.5L474.75 441.538C479.628 436.926 480.459 436 479.712 436C479.554 436 477.192 438.362 474.462 441.25ZM29 438.941C29 439.459 29.445 440.157 29.989 440.493C30.555 440.843 30.723 440.442 30.382 439.552C29.717 437.82 29 437.503 29 438.941ZM276.564 439.707C276.022 441.132 276.136 441.247 277.124 440.267C277.808 439.588 278.115 438.781 277.807 438.474C277.499 438.166 276.94 438.721 276.564 439.707ZM596 441C595.411 442.1 595.155 443 595.43 443C595.705 443 596.411 442.1 597 441C597.589 439.9 597.845 439 597.57 439C597.295 439 596.589 439.9 596 441ZM32 444.941C32 445.459 32.445 446.157 32.989 446.493C33.555 446.843 33.723 446.442 33.382 445.552C32.717 443.82 32 443.503 32 444.941ZM593 447C592.411 448.1 592.155 449 592.43 449C592.705 449 593.411 448.1 594 447C594.589 445.9 594.845 445 594.57 445C594.295 445 593.589 445.9 593 447ZM400.1 448.705C400.829 449.917 401.64 450.694 401.903 450.431C402.166 450.168 401.57 449.176 400.579 448.226C398.857 446.577 398.835 446.598 400.1 448.705ZM313.388 451.531C312.475 452.923 311.911 454.244 312.133 454.467C312.356 454.689 313.296 453.55 314.222 451.935C316.286 448.34 315.673 448.043 313.388 451.531ZM35 450.941C35 451.459 35.445 452.157 35.989 452.493C36.555 452.843 36.723 452.442 36.382 451.552C35.717 449.82 35 449.503 35 450.941ZM461.437 453.25L458.5 456.5L461.75 453.563C463.538 451.948 465 450.485 465 450.313C465 449.54 464.175 450.221 461.437 453.25ZM271.079 452.668C271.036 453.311 270.741 454.661 270.424 455.668C269.877 457.409 269.906 457.412 270.995 455.712C271.626 454.729 271.92 453.379 271.65 452.712C271.295 451.837 271.136 451.825 271.079 452.668ZM38 456C38.589 457.1 39.295 458 39.57 458C39.845 458 39.589 457.1 39 456C38.411 454.9 37.705 454 37.43 454C37.155 454 37.411 454.9 38 456ZM403.731 456.08C404.085 457.432 404.538 457.886 404.788 457.137C405.028 456.415 404.75 455.35 404.168 454.768C403.426 454.026 403.296 454.417 403.731 456.08ZM587.564 456.707C587.022 458.132 587.136 458.247 588.124 457.267C588.808 456.588 589.115 455.781 588.807 455.474C588.499 455.166 587.94 455.721 587.564 456.707ZM310.459 457.067C310.096 457.653 310.014 458.348 310.276 458.61C310.538 458.872 311.019 458.392 311.345 457.543C312.021 455.781 311.445 455.471 310.459 457.067ZM41 461C41.589 462.1 42.295 463 42.57 463C42.845 463 42.589 462.1 42 461C41.411 459.9 40.705 459 40.43 459C40.155 459 40.411 459.9 41 461ZM268.116 463.168C268.052 464.086 267.741 465.661 267.424 466.668C266.879 468.404 266.909 468.407 267.992 466.719C268.62 465.739 268.931 464.164 268.683 463.219C268.277 461.67 268.221 461.665 268.116 463.168ZM307.624 464.539C307.281 465.432 307.029 466.689 307.063 467.332C307.098 467.974 307.558 467.422 308.085 466.105C308.612 464.787 308.864 463.531 308.645 463.312C308.426 463.093 307.966 463.645 307.624 464.539ZM44 466C44.589 467.1 45.295 468 45.57 468C45.845 468 45.589 467.1 45 466C44.411 464.9 43.705 464 43.43 464C43.155 464 43.411 464.9 44 466ZM447.616 465.872C446.22 467.415 445.98 469.395 446.253 477.122L446.585 486.5L446.792 477.079C446.95 469.931 447.399 467.216 448.655 465.829C449.565 464.823 450.085 464 449.81 464C449.535 464 448.548 464.842 447.616 465.872ZM407.208 474.668C407.093 479.711 406.741 484.661 406.424 485.668C405.893 487.361 405.933 487.369 406.962 485.771C407.644 484.713 407.948 480.447 407.745 474.771L407.415 465.5L407.208 474.668ZM579 469.5C578.282 470.365 578.185 471 578.771 471C579.329 471 580.045 470.325 580.362 469.5C580.678 468.675 580.781 468 580.591 468C580.401 468 579.685 468.675 579 469.5ZM49.915 474.75C50.458 475.712 52.084 477.85 53.53 479.5C55.52 481.771 55.37 481.345 52.91 477.75C49.699 473.055 48.005 471.359 49.915 474.75ZM264.731 474.92C264.296 476.583 264.426 476.974 265.168 476.232C265.75 475.65 266.028 474.585 265.788 473.863C265.538 473.114 265.085 473.568 264.731 474.92ZM304.624 474.539C304.281 475.432 304.029 476.689 304.063 477.332C304.098 477.974 304.558 477.422 305.085 476.105C305.612 474.787 305.864 473.531 305.645 473.312C305.426 473.093 304.966 473.645 304.624 474.539ZM572 479C570.258 481.2 569.057 483 569.332 483C569.607 483 571.258 481.2 573 479C574.742 476.8 575.943 475 575.668 475C575.393 475 573.742 476.8 572 479ZM143.096 476.981C143.974 477.501 146.674 478.168 149.096 478.462C152.2 478.839 152.762 478.751 151 478.163C146.697 476.727 141.309 475.921 143.096 476.981ZM163 477.578L158.5 478.96L162.5 478.389C164.7 478.074 167.175 477.422 168 476.939C170.079 475.722 168.309 475.948 163 477.578ZM261.624 483.539C260.659 486.053 260.943 486.702 262.122 484.675C262.706 483.671 262.973 482.639 262.715 482.382C262.458 482.124 261.966 482.645 261.624 483.539ZM301.624 485.539C301.281 486.432 301.029 487.689 301.063 488.332C301.098 488.974 301.558 488.422 302.085 487.105C302.612 485.787 302.864 484.531 302.645 484.312C302.426 484.093 301.966 484.645 301.624 485.539ZM58.792 486.5C59.362 487.6 61.329 489.849 63.164 491.498L66.5 494.496L63.003 490.498C61.079 488.299 59.112 486.05 58.63 485.5C58.149 484.95 58.222 485.4 58.792 486.5ZM259.184 489.496C258.556 490.873 258.431 492 258.905 492C259.735 492 261.231 487.898 260.623 487.289C260.459 487.126 259.811 488.118 259.184 489.496ZM563.405 489.25L561.5 491.5L563.75 489.595C565.864 487.805 566.455 487 565.655 487C565.465 487 564.453 488.013 563.405 489.25ZM299.079 492.668C299.036 493.311 298.741 494.661 298.424 495.668C297.877 497.409 297.906 497.412 298.995 495.712C299.626 494.729 299.92 493.379 299.65 492.712C299.295 491.837 299.136 491.825 299.079 492.668ZM551.481 502.25L541.5 512.5L551.75 502.519C557.388 497.029 562 492.417 562 492.269C562 491.545 560.752 492.73 551.481 502.25ZM403.731 494.92C403.296 496.583 403.426 496.974 404.168 496.232C404.75 495.65 405.028 494.585 404.788 493.863C404.538 493.114 404.085 493.568 403.731 494.92ZM443.624 495.539C443.281 496.432 443.029 497.689 443.063 498.332C443.098 498.974 443.558 498.422 444.085 497.105C444.612 495.787 444.864 494.531 444.645 494.312C444.426 494.093 443.966 494.645 443.624 495.539ZM76.5 506C81.979 511.5 86.687 516 86.962 516C87.237 516 82.979 511.5 77.5 506C72.021 500.5 67.313 496 67.038 496C66.763 496 71.021 500.5 76.5 506ZM255.564 497.707C255.022 499.132 255.136 499.247 256.124 498.267C256.808 497.588 257.115 496.781 256.807 496.474C256.499 496.166 255.94 496.721 255.564 497.707ZM295.954 501.086C295.34 502.233 295.026 503.36 295.257 503.59C295.487 503.82 296.189 502.882 296.816 501.504C298.194 498.48 297.523 498.154 295.954 501.086ZM253 502C252.409 503.105 252.341 504 252.848 504C253.353 504 254.002 503.1 254.29 502C254.577 500.9 254.646 500 254.442 500C254.237 500 253.589 500.9 253 502ZM400.564 502.707C400.022 504.132 400.136 504.247 401.124 503.267C401.808 502.588 402.115 501.781 401.807 501.474C401.499 501.166 400.94 501.721 400.564 502.707ZM440.624 505.539C439.659 508.053 439.943 508.702 441.122 506.675C441.706 505.671 441.973 504.639 441.715 504.382C441.458 504.124 440.966 504.645 440.624 505.539ZM398 507C397.411 508.1 397.155 509 397.43 509C397.705 509 398.411 508.1 399 507C399.589 505.9 399.845 505 399.57 505C399.295 505 398.589 505.9 398 507ZM292.564 508.707C292.022 510.132 292.136 510.247 293.124 509.267C293.808 508.588 294.115 507.781 293.807 507.474C293.499 507.166 292.94 507.721 292.564 508.707ZM438.162 511.543C436.487 515.22 436.807 516.005 438.618 512.662C439.464 511.1 439.969 509.636 439.741 509.407C439.512 509.179 438.802 510.14 438.162 511.543ZM247 512C246.411 513.1 246.155 514 246.43 514C246.705 514 247.411 513.1 248 512C248.589 510.9 248.845 510 248.57 510C248.295 510 247.589 510.9 247 512ZM394.872 511.75C393.629 513.336 393.664 513.371 395.25 512.128C396.916 510.821 397.445 510 396.622 510C396.415 510 395.627 510.788 394.872 511.75ZM290 514C289.411 515.1 289.155 516 289.43 516C289.705 516 290.411 515.1 291 514C291.589 512.9 291.845 512 291.57 512C291.295 512 290.589 512.9 290 514ZM537.872 514.75C536.629 516.336 536.664 516.371 538.25 515.128C539.916 513.821 540.445 513 539.622 513C539.415 513 538.627 513.788 537.872 514.75ZM391.872 515.75C390.629 517.336 390.664 517.371 392.25 516.128C393.916 514.821 394.445 514 393.622 514C393.415 514 392.627 514.788 391.872 515.75ZM243.872 516.75C242.629 518.336 242.664 518.371 244.25 517.128C245.916 515.821 246.445 515 245.622 515C245.415 515 244.627 515.788 243.872 516.75ZM383.644 524.625C379.873 528.233 377.623 530.726 378.644 530.166C380.495 529.15 391.85 517.97 390.966 518.033C390.71 518.052 387.415 521.018 383.644 524.625ZM240 521.5C238.708 522.875 238.067 523.986 238.576 523.969C239.431 523.94 243.552 519 242.721 519C242.516 519 241.292 520.125 240 521.5ZM527.5 523.622L522.5 528.203L527.75 524.008C532.296 520.376 533.736 518.939 532.75 519.021C532.612 519.032 530.25 521.103 527.5 523.622ZM93.5 521.911C95.589 524.323 103 530.458 103 529.775C103 529.558 100.412 527.181 97.25 524.491C94.088 521.802 92.4 520.641 93.5 521.911ZM281 529C280.411 530.1 280.155 531 280.43 531C280.705 531 281.411 530.1 282 529C282.589 527.9 282.845 527 282.57 527C282.295 527 281.589 527.9 281 529ZM429 529C428.411 530.1 428.155 531 428.43 531C428.705 531 429.411 530.1 430 529C430.589 527.9 430.845 527 430.57 527C430.295 527 429.589 527.9 429 529ZM371 535.089C368.846 536.851 368.804 536.986 370.694 536.062C371.901 535.472 373.165 534.542 373.503 533.995C374.406 532.534 373.8 532.799 371 535.089ZM109 534.378C109 534.585 109.788 535.373 110.75 536.128C112.336 537.371 112.371 537.336 111.128 535.75C109.821 534.084 109 533.555 109 534.378ZM274.872 537.75C273.629 539.336 273.664 539.371 275.25 538.128C276.916 536.821 277.445 536 276.622 536C276.415 536 275.627 536.788 274.872 537.75ZM422.872 537.75C421.629 539.336 421.664 539.371 423.25 538.128C424.916 536.821 425.445 536 424.622 536C424.415 536 423.627 536.788 422.872 537.75ZM506.507 538.989C506.157 539.555 506.558 539.723 507.448 539.382C509.18 538.717 509.497 538 508.059 538C507.541 538 506.843 538.445 506.507 538.989ZM117 540.35C117 540.581 118.18 541.543 119.623 542.489C121.066 543.434 121.941 543.713 121.567 543.109C120.854 541.955 117 539.626 117 540.35ZM223.624 541.539C222.659 544.053 222.943 544.702 224.122 542.675C224.706 541.671 224.973 540.639 224.715 540.382C224.458 540.124 223.966 540.645 223.624 541.539ZM271.872 541.75C270.629 543.336 270.664 543.371 272.25 542.128C273.916 540.821 274.445 540 273.622 540C273.415 540 272.627 540.788 271.872 541.75ZM419.872 541.75C418.629 543.336 418.664 543.371 420.25 542.128C421.916 540.821 422.445 540 421.622 540C421.415 540 420.627 540.788 419.872 541.75ZM356 544C355.099 544.582 354.975 544.975 355.691 544.985C356.346 544.993 357.16 544.55 357.5 544C358.267 542.758 357.921 542.758 356 544ZM268.872 545.75C267.629 547.336 267.664 547.371 269.25 546.128C270.916 544.821 271.445 544 270.622 544C270.415 544 269.627 544.788 268.872 545.75ZM126 546.43C126 546.705 126.9 547.411 128 548C129.1 548.589 130 548.845 130 548.57C130 548.295 129.1 547.589 128 547C126.9 546.411 126 546.155 126 546.43ZM349 547C348.175 547.533 347.95 547.969 348.5 547.969C349.05 547.969 350.175 547.533 351 547C351.825 546.467 352.05 546.031 351.5 546.031C350.95 546.031 349.825 546.467 349 547ZM494 547C493.099 547.582 492.975 547.975 493.691 547.985C494.346 547.993 495.16 547.55 495.5 547C496.267 545.758 495.921 545.758 494 547ZM409.72 552.5C406.622 555.525 404.42 558 404.828 558C405.235 558 408.013 555.525 411 552.5C413.987 549.475 416.189 547 415.893 547C415.596 547 412.818 549.475 409.72 552.5ZM220.641 550.21C220.303 551.47 220.091 555.425 220.168 559C220.31 565.5 220.31 565.5 220.995 557C221.719 548.009 221.639 546.482 220.641 550.21ZM263.687 551.805C260.919 554.694 260.197 557 262.059 557C262.641 557 262.817 556.513 262.45 555.919C262.082 555.324 263.04 553.524 264.578 551.919C266.116 550.313 267.149 549 266.874 549C266.599 549 265.165 550.262 263.687 551.805ZM341.5 550C339.87 550.701 339.812 550.872 341.191 550.93C342.121 550.968 343.16 550.55 343.5 550C344.211 548.85 344.176 548.85 341.5 550ZM489 550C488.099 550.582 487.975 550.975 488.691 550.985C489.346 550.993 490.16 550.55 490.5 550C491.267 548.758 490.921 548.758 489 550ZM329.5 553C326.732 553.704 326.694 553.771 329 553.866C330.375 553.923 332.175 553.533 333 553C334.702 551.9 333.822 551.9 329.5 553ZM322.813 554.683C323.534 554.972 324.397 554.936 324.729 554.604C325.061 554.272 324.471 554.036 323.417 554.079C322.252 554.127 322.015 554.364 322.813 554.683ZM141 555.43C141 555.705 141.9 556.411 143 557C144.1 557.589 145 557.845 145 557.57C145 557.295 144.1 556.589 143 556C141.9 555.411 141 555.155 141 555.43ZM312.75 555.662C313.438 555.94 314.563 555.94 315.25 555.662C315.938 555.385 315.375 555.158 314 555.158C312.625 555.158 312.063 555.385 312.75 555.662ZM478 556C477.099 556.582 476.975 556.975 477.691 556.985C478.346 556.993 479.16 556.55 479.5 556C480.267 554.758 479.921 554.758 478 556ZM298.75 556.732C301.087 556.943 304.913 556.943 307.25 556.732C309.587 556.522 307.675 556.349 303 556.349C298.325 556.349 296.413 556.522 298.75 556.732ZM472 559C471.099 559.582 470.975 559.975 471.691 559.985C472.346 559.993 473.16 559.55 473.5 559C474.267 557.758 473.921 557.758 472 559ZM400.872 560.75C399.629 562.336 399.664 562.371 401.25 561.128C402.916 559.821 403.445 559 402.622 559C402.415 559 401.627 559.788 400.872 560.75ZM152.733 562.124C153.412 562.808 154.219 563.115 154.526 562.807C154.834 562.499 154.279 561.94 153.293 561.564C151.868 561.022 151.753 561.136 152.733 562.124ZM466 562C465.099 562.582 464.975 562.975 465.691 562.985C466.346 562.993 467.16 562.55 467.5 562C468.267 560.758 467.921 560.758 466 562ZM394.5 565.625C392.702 567.155 392.334 567.763 393.582 567.143C395.415 566.233 398.853 562.941 397.872 563.036C397.668 563.056 396.15 564.221 394.5 565.625ZM459 565C458.099 565.582 457.975 565.975 458.691 565.985C459.346 565.993 460.16 565.55 460.5 565C461.267 563.758 460.921 563.758 459 565ZM221.079 567.583C221.127 568.748 221.364 568.985 221.683 568.188C221.972 567.466 221.936 566.603 221.604 566.271C221.272 565.939 221.036 566.529 221.079 567.583ZM165 568C165.825 568.533 166.95 568.969 167.5 568.969C168.05 568.969 167.825 568.533 167 568C166.175 567.467 165.05 567.031 164.5 567.031C163.95 567.031 164.175 567.467 165 568ZM452.507 567.989C452.157 568.555 452.558 568.723 453.448 568.382C455.18 567.717 455.497 567 454.059 567C453.541 567 452.843 567.445 452.507 567.989ZM172 571C172.825 571.533 173.95 571.969 174.5 571.969C175.05 571.969 174.825 571.533 174 571C173.175 570.467 172.05 570.031 171.5 570.031C170.95 570.031 171.175 570.467 172 571ZM222.071 570.5C222.071 571.05 222.714 572.625 223.5 574C224.286 575.375 224.929 576.05 224.929 575.5C224.929 574.95 224.286 573.375 223.5 572C222.714 570.625 222.071 569.95 222.071 570.5ZM445 571C444.175 571.533 443.95 571.969 444.5 571.969C445.05 571.969 446.175 571.533 447 571C447.825 570.467 448.05 570.031 447.5 570.031C446.95 570.031 445.825 570.467 445 571ZM384.441 572.555C382.577 574.049 382.589 574.067 384.75 573.02C385.987 572.42 387 571.72 387 571.465C387 570.7 386.481 570.921 384.441 572.555ZM177 572.577C177 573.252 182.195 575.139 182.69 574.644C182.917 574.417 181.729 573.753 180.051 573.168C178.373 572.583 177 572.317 177 572.577ZM437 574C436.175 574.533 435.95 574.969 436.5 574.969C437.05 574.969 438.175 574.533 439 574C439.825 573.467 440.05 573.031 439.5 573.031C438.95 573.031 437.825 573.467 437 574ZM379.441 575.555C377.577 577.049 377.589 577.067 379.75 576.02C380.987 575.42 382 574.72 382 574.465C382 573.7 381.481 573.921 379.441 575.555ZM428 577C426.172 578.181 427.751 578.181 430.5 577C431.819 576.433 431.989 576.122 431 576.086C430.175 576.055 428.825 576.467 428 577ZM225 577.378C225 577.585 225.788 578.373 226.75 579.128C228.336 580.371 228.371 580.336 227.128 578.75C225.821 577.084 225 576.555 225 577.378ZM373.441 578.555C371.577 580.049 371.589 580.067 373.75 579.02C374.987 578.42 376 577.72 376 577.465C376 576.7 375.481 576.921 373.441 578.555ZM197.5 580C200.249 581.181 201.828 581.181 200 580C199.175 579.467 197.825 579.055 197 579.086C196.011 579.122 196.181 579.433 197.5 580ZM418 580C416.172 581.181 417.751 581.181 420.5 580C421.819 579.433 421.989 579.122 421 579.086C420.175 579.055 418.825 579.467 418 580ZM367.25 581.031C366.013 581.529 365 582.133 365 582.374C365 583.118 368.998 581.812 369.575 580.879C370.211 579.85 370.184 579.852 367.25 581.031ZM230.861 583.843C232.973 585.721 233.938 587.292 233.457 588.07C232.964 588.868 233.102 589.055 233.845 588.595C235.738 587.426 235.2 586.381 231.25 583.547L227.5 580.856L230.861 583.843ZM208.5 583C209.6 583.473 211.175 583.859 212 583.859C212.945 583.859 212.761 583.542 211.5 583C210.4 582.527 208.825 582.141 208 582.141C207.055 582.141 207.239 582.458 208.5 583ZM408.813 582.683C409.534 582.972 410.397 582.936 410.729 582.604C411.061 582.272 410.471 582.036 409.417 582.079C408.252 582.127 408.015 582.364 408.813 582.683ZM361 584C360.175 584.533 359.95 584.969 360.5 584.969C361.05 584.969 362.175 584.533 363 584C363.825 583.467 364.05 583.031 363.5 583.031C362.95 583.031 361.825 583.467 361 584ZM219.75 585.662C220.438 585.94 221.563 585.94 222.25 585.662C222.938 585.385 222.375 585.158 221 585.158C219.625 585.158 219.063 585.385 219.75 585.662ZM395.75 585.662C396.438 585.94 397.563 585.94 398.25 585.662C398.938 585.385 398.375 585.158 397 585.158C395.625 585.158 395.063 585.385 395.75 585.662ZM224.813 586.683C225.534 586.972 226.397 586.936 226.729 586.604C227.061 586.272 226.471 586.036 225.417 586.079C224.252 586.127 224.015 586.364 224.813 586.683ZM353.5 587C352.181 587.567 352.011 587.878 353 587.914C353.825 587.945 355.175 587.533 356 587C357.828 585.819 356.249 585.819 353.5 587ZM391.813 586.683C392.534 586.972 393.397 586.936 393.729 586.604C394.061 586.272 393.471 586.036 392.417 586.079C391.252 586.127 391.015 586.364 391.813 586.683ZM377 589C375.041 589.627 374.933 589.797 376.5 589.782C377.6 589.772 379.85 589.42 381.5 589C384.195 588.314 384.246 588.235 382 588.218C380.625 588.208 378.375 588.56 377 589ZM344.5 590C343.181 590.567 343.011 590.878 344 590.914C344.825 590.945 346.175 590.533 347 590C348.828 588.819 347.249 588.819 344.5 590ZM367.813 590.683C368.534 590.972 369.397 590.936 369.729 590.604C370.061 590.272 369.471 590.036 368.417 590.079C367.252 590.127 367.015 590.364 367.813 590.683ZM339 592.5C337.933 593.786 338.236 593.981 341.128 593.864C343.499 593.768 343.828 593.598 342.235 593.292C340.99 593.053 340.229 592.439 340.544 591.929C341.458 590.45 340.366 590.854 339 592.5ZM359.264 591.718C360.784 591.947 363.034 591.941 364.264 591.704C365.494 591.467 364.25 591.279 361.5 591.286C358.75 591.294 357.744 591.488 359.264 591.718ZM350.25 592.689C351.212 592.941 352.788 592.941 353.75 592.689C354.712 592.438 353.925 592.232 352 592.232C350.075 592.232 349.288 592.438 350.25 592.689Z" fill="black"/>
</svg>
